<svg width="512" height="512" viewBox="0 0 512 512" fill="none" xmlns="http://www.w3.org/2000/svg">
<path d="M243 13.5056C251.044 8.8611 260.956 8.8611 269 13.5056L459.506 123.494C467.551 128.139 472.506 136.722 472.506 146.011V365.989C472.506 375.278 467.551 383.861 459.506 388.506L269 498.494C260.956 503.139 251.044 503.139 243 498.494L52.4936 388.506C44.4492 383.861 39.4937 375.278 39.4937 365.989V146.011C39.4937 136.722 44.4492 128.139 52.4937 123.494L243 13.5056Z" fill="#D44B1A"/>
<path d="M160 340.993V166.341H195.048L194.046 219.772H200.054C203.17 206.637 207.286 195.839 212.405 187.38C217.745 178.92 224.532 172.575 232.766 168.345C240.999 164.115 250.568 162 261.471 162C281.276 162 296.296 169.013 306.533 183.038C316.991 197.064 322.22 218.77 322.22 248.157V340.993H279.83V252.498C279.83 233.575 276.937 219.772 271.151 211.089C265.588 202.184 257.243 197.732 246.117 197.732C236.771 197.732 228.871 200.737 222.418 206.748C215.965 212.536 210.958 220.328 207.398 230.124C204.06 239.697 202.28 250.272 202.057 261.849V340.993H160Z" fill="white"/>
<path d="M359.294 345C350.171 345 343.273 342.996 338.6 338.989C333.926 334.982 331.59 328.748 331.59 320.288C331.59 311.606 333.926 305.261 338.6 301.254C343.273 297.246 350.171 295.243 359.294 295.243C368.863 295.243 375.984 297.246 380.657 301.254C385.552 305.261 388 311.606 388 320.288C388 336.763 378.431 345 359.294 345Z" fill="#1F170D"/>
</svg>
