<?xml version="1.0" encoding="UTF-8" standalone="no"?>
<!-- Created with Inkscape (http://www.inkscape.org/) -->

<svg
   width="480"
   height="415"
   viewBox="0 0 480 415"
   version="1.1"
   id="svg5"
   xml:space="preserve"
   inkscape:export-filename="location.png"
   inkscape:export-xdpi="96"
   inkscape:export-ydpi="96"
   inkscape:version="1.2.1 (9c6d41e, 2022-07-14)"
   sodipodi:docname="report-images-inskscape.svg"
   xmlns:inkscape="http://www.inkscape.org/namespaces/inkscape"
   xmlns:sodipodi="http://sodipodi.sourceforge.net/DTD/sodipodi-0.dtd"
   xmlns="http://www.w3.org/2000/svg"
   xmlns:svg="http://www.w3.org/2000/svg"><sodipodi:namedview
     id="namedview7"
     pagecolor="#ffffff"
     bordercolor="#000000"
     borderopacity="0.25"
     inkscape:showpageshadow="2"
     inkscape:pageopacity="0"
     inkscape:pagecheckerboard="0"
     inkscape:deskcolor="#d1d1d1"
     inkscape:document-units="mm"
     showgrid="false"
     inkscape:zoom="0.12581715"
     inkscape:cx="1375.0112"
     inkscape:cy="-345.73982"
     inkscape:window-width="1920"
     inkscape:window-height="1027"
     inkscape:window-x="0"
     inkscape:window-y="76"
     inkscape:window-maximized="0"
     inkscape:current-layer="layer1"><inkscape:page
       x="0"
       y="0"
       width="480"
       height="415"
       id="page5788" /><inkscape:page
       x="490"
       y="0"
       width="480"
       height="415"
       id="page5790"
       inkscape:export-filename="phone-call.png"
       inkscape:export-xdpi="96"
       inkscape:export-ydpi="96" /><inkscape:page
       x="980"
       y="0"
       width="480"
       height="415"
       id="page6111"
       inkscape:export-filename="briefcase.png"
       inkscape:export-xdpi="96"
       inkscape:export-ydpi="96" /><inkscape:page
       x="1470"
       y="0"
       width="480"
       height="415"
       id="page6113"
       inkscape:export-filename="dollar-bag.png"
       inkscape:export-xdpi="96"
       inkscape:export-ydpi="96" /><inkscape:page
       x="4.8904109"
       y="420.66397"
       width="480"
       height="414.99997"
       id="page12195" /><inkscape:page
       x="1960"
       y="0"
       width="480"
       height="415"
       id="page6115" /></sodipodi:namedview><defs
     id="defs2" /><g
     inkscape:label="Layer 1"
     inkscape:groupmode="layer"
     id="layer1"><path
       d="m 1412,87.368418 h -95.9999 v -43.68421 c 0,-24.24474 -21.3601,-43.6842093818063 -48,-43.6842093818063 H 1172 c -26.6399,0 -48,19.4394693818063 -48,43.6842093818063 v 43.68421 h -95.9999 c -26.6401,0 -47.76001,19.439472 -47.76001,43.684212 L 980,371.31579 C 980,395.56053 1001.36,415 1028.0001,415 H 1412 c 26.64,0 48,-19.43947 48,-43.68421 V 131.05263 c 0,-24.24474 -21.36,-43.684212 -48,-43.684212 m -143.9999,0 H 1172 v -43.68421 h 96.0001 z"
       id="path10523"
       style="stroke-width:22.8956" /><path
       d="m 1470,186.74999 h 91.3851 V 415 H 1470 Z M 1812.6938,25.9375 C 1827.5438,10.16751 1850.6187,0 1874.3788,0 c 42.2657,0 75.3925,30.08749 75.3925,68.47499 0,47.1025 -66.4825,101.67501 -137.0775,159.77502 C 1742.0989,169.9425 1675.6162,115.37 1675.6162,68.47499 1675.6162,30.08749 1708.7434,0 1751.0091,0 c 23.76,0 46.8346,10.16751 61.6847,25.9375 m 91.3851,285.3125 h -159.9238 l -47.7486,-15.1475 7.5391,-19.505 40.2095,13.90249 h 64.4266 c 14.85,0 26.9585,-10.99749 26.9585,-24.48499 0,-10.16751 -7.0823,-19.2975 -17.5917,-23.0325 l -165.8639,-56.23251 h -45.007 V 373.915 L 1767.0014,415 1950,352.75 c -0.2287,-22.82501 -20.5616,-41.5 -45.9211,-41.5"
       id="path10931"
       style="stroke-width:21.7729" /><path
       d="m 2413.3333,0 h -426.6666 v 51.875 h 426.6666 z M 2440,259.375 V 207.5 L 2413.3333,77.8125 H 1986.6667 L 1960,207.5 v 51.875 h 26.6667 V 415 h 266.6666 V 259.375 H 2360 V 415 h 53.3333 V 259.375 Z m -240,103.75 h -160 v -103.75 h 160 z"
       id="path11887"
       style="stroke-width:26.2996" /><path
       d="M 145.25,-1.03e-6 C 64.9475,-1.03e-6 0,64.947499 0,145.25 0,254.18752 145.25,415 145.25,415 c 0,0 145.25002,-160.81248 145.25002,-269.75 C 290.50002,64.947499 225.55251,-1.03e-6 145.25,-1.03e-6 m 0,197.12500103 c -28.635,0 -51.875,-23.24 -51.875,-51.875 0,-28.635 23.24,-51.875001 51.875,-51.875001 28.635,0 51.875,23.240001 51.875,51.875001 0,28.635 -23.24,51.875 -51.875,51.875"
       id="path12197"
       style="stroke-width:20.75" /><path
       d="m 573.46111,179.60278 c 33.2,65.24722 86.68889,118.50555 151.93611,151.93611 l 50.72222,-50.72222 c 6.225,-6.225 15.44723,-8.3 23.51667,-5.53334 25.82222,8.53056 53.71945,13.14167 82.30833,13.14167 C 894.625,288.425 905,298.8 905,311.48056 v 80.46388 C 905,404.625 894.625,415 881.94444,415 665.45278,415 490,239.54722 490,23.05556 490,10.375 500.375,0 513.05556,0 H 593.75 c 12.68056,0 23.05556,10.375 23.05556,23.05556 0,28.81944 4.61111,56.48611 13.14166,82.30833 2.53611,8.06944 0.69167,17.06111 -5.76389,23.51667 z"
       id="path12505"
       style="stroke-width:23.0556" /><path
       d="M 436.89041,420.66397 H 52.890411 c -26.4,0 -47.7600001,23.34375 -47.7600001,51.87499 l -0.24,311.24997 c 0,28.53124 21.6000001,51.87504 48.0000001,51.87504 H 436.89041 c 26.4,0 48,-23.3438 48,-51.87504 V 472.53896 c 0,-28.53124 -21.6,-51.87499 -48,-51.87499 m 0,103.74999 -192,129.68749 L 52.890411,524.41396 v -51.875 l 191.999999,129.68749 192,-129.68749 z"
       id="path12813"
       style="stroke-width:24.9499" /></g></svg>
