<svg width="83" height="38" viewBox="0 0 83 38" fill="none" xmlns="http://www.w3.org/2000/svg">
<path d="M2.752 30V8.88H12C14.56 8.88 16.448 9.38133 17.664 10.384C18.88 11.3867 19.488 12.8053 19.488 14.64C19.488 15.7707 19.1467 16.7733 18.464 17.648C17.7813 18.5227 16.7787 19.0773 15.456 19.312V19.344C16.928 19.5573 18.0587 20.112 18.848 21.008C19.6373 21.904 20.032 22.9707 20.032 24.208C20.032 26.0213 19.3707 27.44 18.048 28.464C16.7467 29.488 14.8373 30 12.32 30H2.752ZM7.04 26.672H11.936C13.1307 26.672 14.016 26.4267 14.592 25.936C15.168 25.4453 15.456 24.7627 15.456 23.888C15.456 22.992 15.168 22.3093 14.592 21.84C14.016 21.3707 13.1307 21.136 11.936 21.136H7.04V26.672ZM7.04 17.744H11.424C13.7493 17.744 14.912 16.8373 14.912 15.024C14.912 13.2107 13.7493 12.304 11.424 12.304H7.04V17.744ZM32.924 19.792C32.924 18.8747 32.6573 18.16 32.124 17.648C31.612 17.136 30.9293 16.88 30.076 16.88C29.2867 16.88 28.5933 17.0827 27.996 17.488C27.3987 17.8933 26.9613 18.5653 26.684 19.504L22.94 18.352C23.3027 16.944 24.092 15.8133 25.308 14.96C26.5453 14.1067 28.1987 13.68 30.268 13.68C31.676 13.68 32.9027 13.904 33.948 14.352C34.9933 14.7787 35.804 15.4293 36.38 16.304C36.9773 17.1787 37.276 18.2773 37.276 19.6V26.096C37.276 26.9067 37.66 27.312 38.428 27.312C38.7907 27.312 39.132 27.2587 39.452 27.152L39.196 29.872C38.6413 30.1493 37.948 30.288 37.116 30.288C36.3693 30.288 35.6973 30.16 35.1 29.904C34.5027 29.648 34.0333 29.264 33.692 28.752C33.3507 28.2187 33.18 27.5573 33.18 26.768V26.64L33.948 26.512C33.82 27.3227 33.468 28.016 32.892 28.592C32.316 29.1467 31.612 29.5733 30.78 29.872C29.9693 30.1707 29.1267 30.32 28.252 30.32C27.164 30.32 26.2253 30.16 25.436 29.84C24.6467 29.4987 24.0387 29.008 23.612 28.368C23.1853 27.728 22.972 26.9387 22.972 26C22.972 24.8053 23.356 23.8347 24.124 23.088C24.892 22.32 25.9907 21.7973 27.42 21.52L33.436 20.304L33.404 23.024L29.564 23.792C28.8387 23.9413 28.284 24.144 27.9 24.4C27.5373 24.6347 27.356 25.0293 27.356 25.584C27.356 26.1173 27.548 26.5227 27.932 26.8C28.3373 27.0773 28.8173 27.216 29.372 27.216C29.82 27.216 30.2573 27.1627 30.684 27.056C31.1107 26.9493 31.4947 26.7787 31.836 26.544C32.1773 26.3093 32.444 25.9893 32.636 25.584C32.828 25.1787 32.924 24.688 32.924 24.112V19.792ZM48.579 30.32C46.9577 30.32 45.475 30.032 44.131 29.456C42.8083 28.88 41.731 28.0693 40.899 27.024L43.427 24.464C43.939 25.232 44.6217 25.8613 45.475 26.352C46.3283 26.8427 47.3417 27.088 48.515 27.088C49.347 27.088 50.0083 26.9707 50.499 26.736C51.011 26.48 51.267 26.0853 51.267 25.552C51.267 25.2107 51.1497 24.9227 50.915 24.688C50.6803 24.432 50.211 24.2293 49.507 24.08L46.691 23.504C44.835 23.12 43.5123 22.544 42.723 21.776C41.955 20.9867 41.571 19.9733 41.571 18.736C41.571 17.8613 41.827 17.04 42.339 16.272C42.8723 15.504 43.6617 14.8853 44.707 14.416C45.7523 13.9253 47.0537 13.68 48.611 13.68C50.211 13.68 51.5977 13.936 52.771 14.448C53.9657 14.9387 54.9043 15.6747 55.587 16.656L52.963 19.216C52.4937 18.4693 51.875 17.904 51.107 17.52C50.3603 17.1147 49.571 16.912 48.739 16.912C48.1417 16.912 47.6297 16.976 47.203 17.104C46.7763 17.232 46.4563 17.4133 46.243 17.648C46.0297 17.8613 45.923 18.1387 45.923 18.48C45.923 18.8213 46.0723 19.12 46.371 19.376C46.6697 19.6107 47.2137 19.8133 48.003 19.984L51.267 20.656C52.8457 20.976 53.9763 21.52 54.659 22.288C55.3417 23.0347 55.683 23.9413 55.683 25.008C55.683 26.032 55.4057 26.9493 54.851 27.76C54.3177 28.5493 53.5177 29.1787 52.451 29.648C51.4057 30.096 50.115 30.32 48.579 30.32ZM68.299 19.792C68.299 18.8747 68.0323 18.16 67.499 17.648C66.987 17.136 66.3043 16.88 65.451 16.88C64.6617 16.88 63.9683 17.0827 63.371 17.488C62.7737 17.8933 62.3363 18.5653 62.059 19.504L58.315 18.352C58.6777 16.944 59.467 15.8133 60.683 14.96C61.9203 14.1067 63.5737 13.68 65.643 13.68C67.051 13.68 68.2777 13.904 69.323 14.352C70.3683 14.7787 71.179 15.4293 71.755 16.304C72.3523 17.1787 72.651 18.2773 72.651 19.6V26.096C72.651 26.9067 73.035 27.312 73.803 27.312C74.1657 27.312 74.507 27.2587 74.827 27.152L74.571 29.872C74.0163 30.1493 73.323 30.288 72.491 30.288C71.7443 30.288 71.0723 30.16 70.475 29.904C69.8777 29.648 69.4083 29.264 69.067 28.752C68.7257 28.2187 68.555 27.5573 68.555 26.768V26.64L69.323 26.512C69.195 27.3227 68.843 28.016 68.267 28.592C67.691 29.1467 66.987 29.5733 66.155 29.872C65.3443 30.1707 64.5017 30.32 63.627 30.32C62.539 30.32 61.6003 30.16 60.811 29.84C60.0217 29.4987 59.4137 29.008 58.987 28.368C58.5603 27.728 58.347 26.9387 58.347 26C58.347 24.8053 58.731 23.8347 59.499 23.088C60.267 22.32 61.3657 21.7973 62.795 21.52L68.811 20.304L68.779 23.024L64.939 23.792C64.2137 23.9413 63.659 24.144 63.275 24.4C62.9123 24.6347 62.731 25.0293 62.731 25.584C62.731 26.1173 62.923 26.5227 63.307 26.8C63.7123 27.0773 64.1923 27.216 64.747 27.216C65.195 27.216 65.6323 27.1627 66.059 27.056C66.4857 26.9493 66.8697 26.7787 67.211 26.544C67.5523 26.3093 67.819 25.9893 68.011 25.584C68.203 25.1787 68.299 24.688 68.299 24.112V19.792Z" fill="#002147"/>
<rect x="78" y="25" width="5" height="5" rx="2.5" fill="#00FF91"/>
</svg>
