<svg width="192" height="192" viewBox="0 0 192 192" fill="none" xmlns="http://www.w3.org/2000/svg">
<path d="M91.125 5.0646C94.1415 3.32291 97.8585 3.32291 100.875 5.0646L172.315 46.3103C175.332 48.0521 177.19 51.2707 177.19 54.7541V137.246C177.19 140.729 175.332 143.948 172.315 145.69L100.875 186.935C97.8585 188.677 94.1415 188.677 91.125 186.935L19.6851 145.69C16.6684 143.948 14.8101 140.729 14.8101 137.246V54.7541C14.8101 51.2707 16.6684 48.0521 19.6851 46.3103L91.125 5.0646Z" fill="#002147"/>
<path d="M70.6 130V64H99.5C107.5 64 113.4 65.5667 117.2 68.7C121 71.8333 122.9 76.2667 122.9 82C122.9 85.5333 121.833 88.6667 119.7 91.4C117.567 94.1333 114.433 95.8667 110.3 96.6V96.7C114.9 97.3667 118.433 99.1 120.9 101.9C123.367 104.7 124.6 108.033 124.6 111.9C124.6 117.567 122.533 122 118.4 125.2C114.333 128.4 108.367 130 100.5 130H70.6ZM84 119.6H99.3C103.033 119.6 105.8 118.833 107.6 117.3C109.4 115.767 110.3 113.633 110.3 110.9C110.3 108.1 109.4 105.967 107.6 104.5C105.8 103.033 103.033 102.3 99.3 102.3H84V119.6ZM84 91.7H97.7C104.967 91.7 108.6 88.8667 108.6 83.2C108.6 77.5333 104.967 74.7 97.7 74.7H84V91.7Z" fill="white"/>
<rect x="130" y="111" width="19" height="19" rx="9.5" fill="#00FF91"/>
</svg>
