<?xml version="1.0" encoding="UTF-8"?>
<svg id="Capa_1" xmlns="http://www.w3.org/2000/svg" version="1.1" viewBox="0 0 2079.29 710.81">
  <!-- Generator: Adobe Illustrator 29.7.1, SVG Export Plug-In . SVG Version: 2.1.1 Build 8)  -->
  <defs>
    <style>
      .st0 {
        fill: #10509c;
      }

      .st1 {
        fill: #30aae1;
      }
    </style>
  </defs>
  <path class="st0" d="M95.15,301.67v16.57c0,2.63.92,4.87,2.76,6.71,1.84,1.84,4.08,2.76,6.71,2.76h106.92c2.63,0,4.87.92,6.72,2.76,1.83,1.85,2.76,4.09,2.76,6.71v54.45c0,2.63-.93,4.87-2.76,6.71-1.85,1.85-4.09,2.76-6.72,2.76h-106.92c-2.63,0-4.87.92-6.71,2.76-1.84,1.85-2.76,4.09-2.76,6.71v14.99c0,2.63.92,4.87,2.76,6.7,1.84,1.85,4.08,2.76,6.71,2.76h122.71c2.63,0,4.86.93,6.71,2.76,1.84,1.84,2.76,4.08,2.76,6.71v54.45c0,2.63-.92,4.87-2.76,6.7-1.85,1.85-4.08,2.77-6.71,2.77H26.49c-2.63,0-4.87-.92-6.71-2.77-1.84-1.83-2.76-4.06-2.76-6.7V229.06c0-2.63.92-4.87,2.76-6.71,1.83-1.83,4.08-2.76,6.71-2.76h200.84c2.63,0,4.86.93,6.71,2.76,1.84,1.84,2.76,4.08,2.76,6.71v53.66c0,2.64-.92,4.88-2.76,6.71-1.85,1.85-4.08,2.76-6.71,2.76h-122.71c-2.63,0-4.87.93-6.71,2.76-1.84,1.84-2.76,4.08-2.76,6.71"/>
  <path class="st0" d="M869.18,428.63h-34.41c-2.64,0-4.89.92-6.73,2.76-1.85,1.84-2.76,4.08-2.76,6.71v58.79c0,2.63-.92,4.87-2.75,6.71-1.83,1.85-4.06,2.76-6.68,2.76h-59.28c-2.61,0-4.84-.92-6.68-2.76-1.83-1.84-2.74-4.07-2.74-6.71V227c0-2.62.92-4.87,2.76-6.7,1.84-1.84,4.09-2.76,6.72-2.76h120.73c14.73,0,28.61,2.76,41.63,8.29,13.02,5.52,24.32,13.15,33.93,22.88,9.6,9.73,17.22,21.04,22.88,33.93,5.65,12.89,8.48,26.7,8.48,41.43s-2.37,28.48-7.11,41.23c-4.76,12.76-11.94,23.8-21.57,33.14-9.63,9.34-21.61,16.7-35.99,22.1-14.37,5.39-31.18,8.09-50.42,8.09M872.06,290.13h-37.27c-2.64,0-4.89.92-6.74,2.74-1.86,1.83-2.77,4.06-2.77,6.67v46.27c0,2.61.92,4.84,2.77,6.68,1.85,1.83,4.1,2.74,6.74,2.74h42.43c10.03,0,17.38-3.19,22-9.6,4.61-6.4,6.94-13.66,6.94-21.77,0-4.17-.73-8.29-2.18-12.36-1.45-4.04-3.63-7.64-6.53-10.78-2.92-3.13-6.48-5.69-10.71-7.65-4.24-1.96-9.12-2.94-14.68-2.94"/>
  <path class="st0" d="M1011.12,227.39c0-2.63.91-4.86,2.74-6.71,1.83-1.84,4.06-2.76,6.68-2.76h59.28c2.61,0,4.84.92,6.67,2.76,1.83,1.85,2.75,4.08,2.75,6.71v159.8c0,10.26,1.65,18.75,4.96,25.45,3.3,6.71,7.39,11.97,12.27,15.79,4.89,3.81,10.1,6.5,15.65,8.09,5.55,1.57,10.58,2.36,15.06,2.36s9.5-.79,15.06-2.36c5.54-1.58,10.69-4.27,15.44-8.09,4.76-3.82,8.79-9.08,12.08-15.79,3.31-6.71,4.97-15.2,4.97-25.45v-159.8c0-2.63.91-4.86,2.74-6.71,1.83-1.84,4.06-2.76,6.68-2.76h59.28c2.62,0,4.84.92,6.67,2.76,1.83,1.85,2.76,4.08,2.76,6.71v159.8c0,18.69-2.97,35.65-8.86,50.9-5.91,15.26-14.38,28.28-25.42,39.07-11.03,10.78-24.29,19.13-39.78,25.05-15.5,5.92-32.7,8.88-51.61,8.88s-36.12-2.96-51.61-8.88c-15.5-5.92-28.77-14.27-39.79-25.05-11.04-10.79-19.56-23.81-25.61-39.07-6.05-15.25-9.06-32.21-9.06-50.9v-159.8Z"/>
  <path class="st0" d="M1488.55,227.39v168.09c0,17.36-2.71,33.14-8.09,47.35-5.4,14.21-12.89,26.44-22.49,36.69-9.61,10.26-21.18,18.15-34.72,23.67-13.55,5.54-28.6,8.29-45.18,8.29-22.1,0-41.69-5.83-58.79-17.47s-30.64-27.8-40.64-48.47c-1.31-2.35-1.44-4.77-.4-7.26,1.06-2.5,2.77-4.4,5.13-5.72l44.58-22.88c2.37-1.31,4.8-1.52,7.31-.6,2.5.93,4.4,2.45,5.72,4.55,3.93,6.31,9.07,11.97,15.38,16.96,6.32,5,13.55,7.49,21.71,7.49,7.11,0,12.76-1.5,16.97-4.54,4.2-3.04,7.43-6.72,9.66-11.07,2.23-4.34,3.75-8.95,4.54-13.82.79-4.88,1.18-9.17,1.18-12.85v-168.39c0-2.63.92-4.87,2.76-6.72,1.83-1.85,4.07-2.77,6.7-2.77h59.19c2.89,0,5.19.92,6.91,2.76,1.7,1.85,2.56,4.08,2.56,6.71"/>
  <path class="st0" d="M1601.79,226.6c1.05-2.36,2.83-4.4,5.33-6.11,2.49-1.7,5.19-2.56,8.09-2.56h55.23c2.63,0,5.19.86,7.7,2.56,2.49,1.71,4.27,3.75,5.33,6.11l115.22,268.32c1.04,2.36.85,4.87-.59,7.49-1.45,2.63-4.28,3.95-8.48,3.95h-67.48c-2.89,0-5.59-.85-8.09-2.57-2.5-1.7-4.41-3.74-5.72-6.11l-10.65-23.67c-1.32-2.38-3.23-4.4-5.72-6.12-2.5-1.7-5.07-2.56-7.7-2.56h-83.25c-2.89,0-5.59.86-8.1,2.56-2.5,1.72-4.27,3.75-5.31,6.12l-11.06,23.67c-1.05,2.38-2.82,4.41-5.32,6.11-2.5,1.72-5.07,2.57-7.69,2.57h-67.87c-1.31,0-2.69-.27-4.15-.79-1.43-.53-2.62-1.31-3.54-2.37-.92-1.04-1.52-2.37-1.78-3.95-.27-1.57.12-3.41,1.18-5.52l114.42-267.13ZM1625.08,398.25h35.11c2.63,0,4.53-.86,5.72-2.57,1.19-1.71,1.13-3.75-.19-6.11-2.63-6.57-5.8-14.27-9.48-23.09-3.68-8.81-7.1-17.03-10.26-24.66-1.05-2.36-2.23-3.55-3.55-3.55s-2.5,1.19-3.55,3.55l-19.72,47.75c-1.06,2.37-1.06,4.4,0,6.11,1.04,1.71,3.02,2.57,5.92,2.57"/>
  <path class="st0" d="M1875.97,506.36h-59.09c-2.64,0-4.89-.92-6.74-2.76-1.85-1.84-2.78-4.07-2.78-6.71V227c0-2.62.92-4.87,2.77-6.7,1.83-1.84,4.07-2.77,6.71-2.77h122.7c15.25,0,29.32,2.56,42.22,7.69,12.89,5.14,23.87,12.31,32.95,21.51,9.07,9.2,16.18,20.12,21.3,32.75,5.13,12.62,7.7,26.57,7.7,41.83,0,8.42-.99,16.77-2.96,25.06-1.97,8.29-4.8,16.11-8.49,23.47-3.68,7.37-8.02,14.01-13.02,19.93-5,5.91-10.66,10.85-16.96,14.8-2.11,1.57-3.49,3.49-4.14,5.72-.66,2.23-.2,4.4,1.38,6.5,9.99,13.16,20.52,26.7,31.56,40.64,11.05,13.95,20.92,26.7,29.59,38.28,1.59,2.11,1.98,4.4,1.19,6.9-.78,2.51-2.5,3.75-5.13,3.75h-73.39c-2.63,0-5.46-.71-8.5-2.17-3.02-1.44-5.31-3.22-6.9-5.33-8.37-11.05-16.68-22.22-24.93-33.53-8.25-11.31-16.43-22.75-24.54-34.33-1.57-2.11-3.8-3.88-6.68-5.33-2.88-1.44-5.62-2.17-8.24-2.17h-8.63c-2.63,0-4.85.93-6.68,2.76-1.83,1.84-2.76,4.08-2.76,6.71v63.92c0,2.63-.92,4.87-2.76,6.71-1.86,1.85-4.11,2.76-6.74,2.76M1894.91,350.9h41.62c3.13,0,6.4-.59,9.81-1.78,3.41-1.18,6.55-3.02,9.43-5.52,2.87-2.5,5.23-5.59,7.07-9.27,1.83-3.69,2.75-8.03,2.75-13.02,0-2.62-.46-5.72-1.37-9.28-.92-3.54-2.5-6.97-4.71-10.26-2.23-3.28-5.24-6.05-9.04-8.29-3.79-2.23-8.44-3.35-13.93-3.35h-41.62c-2.61,0-4.84.92-6.67,2.76-1.83,1.84-2.76,4.08-2.76,6.71v41.82c0,2.63.92,4.87,2.76,6.71,1.83,1.84,4.06,2.76,6.67,2.76"/>
  <path class="st1" d="M338.11,559.26c-4.95,10.16-12.63,17.09-23.09,20.86-10.45,3.75-20.72,3.18-30.79-1.69-10.08-4.89-17-12.5-20.81-22.83-3.8-10.33-3.22-20.39,1.72-30.17,10.64-22.17,34.2-85.13,70.7-188.89,16.72-46.97,28.31-79.5,34.77-97.54,5.7-14.28,10.06-25.17,13.12-32.7,2.66-4.88,4.93-9.02,6.84-12.39,1.88-3.39,3.98-6.2,6.27-8.47,9.88-10.14,21.67-14.45,35.35-12.97,12.91,1.13,23,7.33,30.23,18.61,1.88,3.01,3.6,6.2,5.13,9.59,1.14,3.38,2.47,7.71,3.98,12.97,1.52,7.52,3.62,18.23,6.27,32.12.37,1.88,5.33,31.39,14.83,88.53,1.9,11.65,3.6,21.79,5.13,30.45,4.93-10.91,11.98-26.13,21.1-45.67,22.05-47.72,36.49-78.74,43.33-93.04,7.21-14.26,13.1-25.36,17.67-33.27,3.04-5.62,5.9-10.14,8.56-13.53,7.21-9.02,15.39-15.02,24.52-18.03,9.12-2.62,17.47-2.54,25.09.27,7.59,2.83,13.67,6.87,18.23,12.12,3.8,4.15,6.86,9.21,9.13,15.23,1.52,4.14,2.65,9.39,3.43,15.78,1.13,7.89,1.88,19.17,2.27,33.83.75,14.67,1.7,48.12,2.85,100.37,1.9,104.12,5.7,168.39,11.41,192.82,2.65,10.91,1.03,20.96-4.85,30.17-5.91,9.21-14.37,15.13-25.37,17.76-11.02,2.62-21.2,1.03-30.51-4.79-9.32-5.83-15.31-14.18-17.96-25.09-6.84-29.68-11.41-96.23-13.68-199.6-.39.76-.57,1.51-.57,2.26-20.15,42.84-34.97,73.86-44.48,93.03-7.6,14.28-13.87,25.37-18.81,33.27-3.8,5.64-7.41,10.34-10.83,14.09-9.51,10.16-20.54,15.42-33.08,15.78-16.35.39-29.28-6.56-38.77-20.86-2.66-4.5-5.14-9.96-7.42-16.34-3.05-8.27-6.28-19.55-9.69-33.83-4.19-18.42-9.12-45.3-14.82-80.64-.39.77-.84,1.79-1.42,3.1-.58,1.32-.85,2.35-.85,3.1-37.64,106.39-62.35,171.79-74.13,196.21"/>
  <path class="st1" d="M480.58,87.9c-1.77-24.86-15.03-45-41.28-53.79-61.76-20.92-84.75,30.67-79.7,64.26,4.67,31.12,33.96,55.73,65.66,53.18,31.78-2.56,57.57-31.63,55.31-63.64M419.68,94.25c.06.03.15.12.17.08-.06.13-.12.06-.17-.08"/>
  <path class="st1" d="M690.91,74.24c-1.77-24.86-15.02-45-41.27-53.8-61.76-20.91-84.75,30.68-79.71,64.26,4.67,31.12,33.96,55.72,65.67,53.17,31.77-2.56,57.57-31.63,55.3-63.64M630.01,80.59c.06.02.15.12.17.08-.06.12-.12.06-.17-.08"/>
  <path class="st1" d="M31.92,675.25c-1.7,0-3.13-.59-4.31-1.76s-1.76-2.61-1.76-4.31v-56.4c0-1.7.59-3.13,1.76-4.31,1.17-1.17,2.61-1.76,4.31-1.76h39.85c1.5,0,2.77.52,3.82,1.57,1.04,1.04,1.57,2.32,1.57,3.82s-.52,2.78-1.57,3.82c-1.05,1.04-2.32,1.57-3.82,1.57h-33.88v17.82h29.47c1.5,0,2.77.54,3.82,1.62,1.04,1.08,1.57,2.37,1.57,3.87s-.52,2.68-1.57,3.72c-1.05,1.04-2.32,1.57-3.82,1.57h-29.47v18.41h34.37c1.43,0,2.69.52,3.77,1.57s1.62,2.32,1.62,3.82-.52,2.78-1.57,3.82c-1.04,1.05-2.32,1.57-3.82,1.57H31.92Z"/>
  <g>
    <path class="st1" d="M87.34,669.87v-40.93c0-1.7.57-3.11,1.71-4.26,1.14-1.14,2.53-1.71,4.16-1.71s3.12.59,4.26,1.76c1.14,1.18,1.71,2.58,1.71,4.21v2.45c4.31-5.94,9.56-8.91,15.76-8.91,7.31,0,12.47,3.04,15.47,9.11,4.57-6.07,10.38-9.11,17.43-9.11,5.68,0,10.12,1.73,13.32,5.19,3.2,3.46,4.8,8.32,4.8,14.59v27.61c0,1.63-.57,3.02-1.71,4.16-1.14,1.14-2.53,1.71-4.16,1.71s-3.12-.57-4.26-1.71c-1.14-1.14-1.71-2.53-1.71-4.16v-23.99c0-4.11-.92-7.25-2.74-9.4-1.83-2.15-4.41-3.23-7.74-3.23s-6.01,1.13-8.03,3.38c-2.02,2.25-3.04,5.4-3.04,9.45v23.79c0,1.63-.57,3.02-1.71,4.16-1.14,1.14-2.53,1.71-4.16,1.71s-3.12-.57-4.26-1.71c-1.14-1.14-1.71-2.53-1.71-4.16v-24.09c0-3.98-.92-7.06-2.74-9.25-1.83-2.19-4.41-3.28-7.74-3.28s-6.01,1.16-8.03,3.48c-2.02,2.32-3.04,5.43-3.04,9.35v23.79c0,1.63-.57,3.02-1.71,4.16-1.14,1.14-2.56,1.71-4.26,1.71s-3.02-.57-4.16-1.71c-1.14-1.14-1.71-2.53-1.71-4.16Z"/>
    <path class="st1" d="M177.81,685.53v-56.6c0-1.7.57-3.11,1.71-4.26,1.14-1.14,2.53-1.71,4.16-1.71s3.12.59,4.26,1.76c1.14,1.18,1.71,2.58,1.71,4.21v3.23c4.57-6.46,10.44-9.69,17.63-9.69,6.46,0,12.08,2.42,16.84,7.25,4.76,4.83,7.15,11.36,7.15,19.58v.2c0,8.16-2.37,14.67-7.1,19.53-4.73,4.86-10.36,7.29-16.89,7.29-7.18,0-13.06-3.04-17.63-9.11v18.31c0,1.63-.57,3.02-1.71,4.16-1.14,1.14-2.56,1.71-4.26,1.71s-3.02-.57-4.16-1.71c-1.14-1.14-1.71-2.53-1.71-4.16ZM204.45,666.05c4.18,0,7.69-1.52,10.53-4.55,2.84-3.04,4.26-7.03,4.26-11.99v-.2c0-4.89-1.44-8.87-4.31-11.94-2.87-3.07-6.36-4.6-10.48-4.6s-7.65,1.55-10.62,4.65c-2.97,3.1-4.45,7.07-4.45,11.9v.2c0,4.83,1.48,8.8,4.45,11.9,2.97,3.1,6.51,4.65,10.62,4.65Z"/>
  </g>
  <path class="st1" d="M240.78,669.87v-40.93c0-1.7.57-3.11,1.71-4.26,1.14-1.14,2.53-1.71,4.16-1.71s3.12.59,4.26,1.76c1.14,1.18,1.71,2.58,1.71,4.21v5.29c1.43-3.33,3.33-6.06,5.68-8.18,2.35-2.12,4.8-3.18,7.34-3.18,1.83,0,3.26.54,4.31,1.62s1.57,2.5,1.57,4.26c0,1.5-.44,2.76-1.32,3.77s-2.01,1.65-3.38,1.91c-4.37.78-7.83,2.86-10.38,6.22-2.55,3.36-3.82,8.01-3.82,13.95v15.27c0,1.63-.59,3.02-1.76,4.16-1.17,1.14-2.58,1.71-4.21,1.71s-3.02-.57-4.16-1.71c-1.14-1.14-1.71-2.53-1.71-4.16Z"/>
  <g>
    <path class="st1" d="M319.01,669.58c-5.09,4.57-11.29,6.85-18.6,6.85s-13.89-2.5-18.95-7.49c-5.06-4.99-7.59-11.44-7.59-19.34v-.2c0-7.5,2.38-13.87,7.15-19.09,4.76-5.22,10.8-7.83,18.11-7.83,5.22,0,9.76,1.32,13.61,3.97,3.85,2.64,6.64,5.84,8.37,9.6,1.73,3.75,2.6,7.72,2.6,11.9,0,1.63-.54,2.99-1.62,4.06s-2.4,1.62-3.97,1.62h-32.41c.65,4.11,2.32,7.33,4.99,9.65,2.68,2.32,5.97,3.48,9.89,3.48,4.5,0,8.58-1.5,12.24-4.51.91-.72,1.92-1.08,3.04-1.08,1.3,0,2.41.46,3.33,1.37.91.91,1.37,2.06,1.37,3.43s-.52,2.58-1.57,3.62ZM285.62,645.78h26.53c-.39-3.98-1.73-7.24-4.01-9.79-2.29-2.55-5.32-3.82-9.11-3.82s-6.59,1.26-9.01,3.77c-2.42,2.51-3.88,5.8-4.41,9.84Z"/>
    <path class="st1" d="M351.03,676.23c-7.18,0-13.74-2.06-19.68-6.17-1.5-.78-2.25-2.15-2.25-4.11,0-1.3.46-2.43,1.37-3.38s2.06-1.42,3.43-1.42c.91,0,1.76.23,2.55.69,4.96,3.33,9.92,5,14.88,5,2.55,0,4.52-.51,5.92-1.52,1.4-1.01,2.1-2.36,2.1-4.06v-.19c0-2.48-3.46-4.77-10.38-6.85-.52-.2-.92-.33-1.17-.39-2.35-.65-4.31-1.3-5.88-1.96-1.57-.65-3.23-1.55-4.99-2.69-1.76-1.14-3.08-2.59-3.97-4.36s-1.32-3.82-1.32-6.17v-.19c0-4.76,1.75-8.58,5.24-11.46,3.49-2.87,7.88-4.31,13.17-4.31,5.55,0,10.97,1.4,16.25,4.21,1.89.98,2.84,2.48,2.84,4.5,0,1.37-.47,2.52-1.42,3.43-.95.92-2.1,1.37-3.48,1.37-.78,0-1.57-.19-2.35-.59-4.57-2.35-8.62-3.52-12.14-3.52-2.22,0-3.98.47-5.29,1.42-1.31.95-1.96,2.17-1.96,3.67v.2c0,1.63.88,2.92,2.64,3.87s4.44,2,8.03,3.18c.46.13.78.23.98.29,2.28.72,4.21,1.42,5.78,2.11,1.57.69,3.21,1.62,4.94,2.79,1.73,1.17,3.05,2.61,3.97,4.31.91,1.7,1.37,3.66,1.37,5.87v.2c0,5.22-1.8,9.24-5.39,12.04s-8.19,4.21-13.81,4.21Z"/>
    <path class="st1" d="M394.7,676.33c-5.09,0-9.42-1.42-12.97-4.26-3.56-2.84-5.34-6.74-5.34-11.7v-.2c0-5.42,1.92-9.55,5.78-12.39,3.85-2.84,9.04-4.26,15.57-4.26,4.76,0,9.4.72,13.9,2.15v-1.27c0-3.65-1.09-6.44-3.28-8.37-2.19-1.92-5.37-2.89-9.55-2.89s-8,.69-11.46,2.06c-.65.19-1.27.29-1.86.29-1.37,0-2.55-.47-3.53-1.42-.98-.94-1.47-2.1-1.47-3.47,0-2.29,1.08-3.85,3.23-4.7,5.35-2.02,10.9-3.04,16.65-3.04,7.7,0,13.41,1.93,17.13,5.78,3.72,3.66,5.58,8.98,5.58,15.96v25.46c0,1.63-.56,2.99-1.66,4.07-1.11,1.08-2.48,1.62-4.11,1.62s-3.08-.49-4.16-1.47c-1.08-.98-1.62-2.15-1.62-3.52v-1.96c-4.18,5.03-9.79,7.54-16.84,7.54ZM398.03,667.72c3.98,0,7.28-1.03,9.89-3.08,2.61-2.06,3.92-4.72,3.92-7.98v-3.52c-3.53-1.37-7.44-2.06-11.75-2.06-3.79,0-6.76.77-8.91,2.3s-3.23,3.64-3.23,6.31v.2c0,2.41.95,4.33,2.84,5.73,1.89,1.41,4.31,2.11,7.25,2.11Z"/>
    <path class="st1" d="M452.47,676.23c-7.18,0-13.74-2.06-19.68-6.17-1.5-.78-2.25-2.15-2.25-4.11,0-1.3.46-2.43,1.37-3.38s2.06-1.42,3.43-1.42c.91,0,1.76.23,2.55.69,4.96,3.33,9.92,5,14.88,5,2.55,0,4.52-.51,5.92-1.52,1.4-1.01,2.1-2.36,2.1-4.06v-.19c0-2.48-3.46-4.77-10.38-6.85-.52-.2-.92-.33-1.17-.39-2.35-.65-4.31-1.3-5.88-1.96-1.57-.65-3.23-1.55-4.99-2.69-1.76-1.14-3.08-2.59-3.97-4.36s-1.32-3.82-1.32-6.17v-.19c0-4.76,1.75-8.58,5.24-11.46s7.88-4.31,13.17-4.31c5.55,0,10.97,1.4,16.25,4.21,1.89.98,2.84,2.48,2.84,4.5,0,1.37-.47,2.52-1.42,3.43-.95.92-2.1,1.37-3.48,1.37-.78,0-1.57-.19-2.35-.59-4.57-2.35-8.62-3.52-12.14-3.52-2.22,0-3.98.47-5.29,1.42-1.31.95-1.96,2.17-1.96,3.67v.2c0,1.63.88,2.92,2.64,3.87s4.44,2,8.03,3.18c.46.13.78.23.98.29,2.28.72,4.21,1.42,5.78,2.11,1.57.69,3.21,1.62,4.94,2.79,1.73,1.17,3.05,2.61,3.97,4.31.91,1.7,1.37,3.66,1.37,5.87v.2c0,5.22-1.8,9.24-5.39,12.04s-8.19,4.21-13.81,4.21Z"/>
  </g>
  <g>
    <path class="st1" d="M553.51,628.94v40.93c0,1.63-.59,3.02-1.76,4.16-1.18,1.14-2.58,1.71-4.21,1.71s-3.04-.57-4.21-1.71c-1.18-1.14-1.76-2.53-1.76-4.16v-2.64c-4.11,6.07-9.5,9.11-16.16,9.11-5.74,0-10.25-1.8-13.51-5.39-3.26-3.59-4.89-8.42-4.89-14.49v-27.51c0-1.63.57-3.03,1.71-4.21,1.14-1.18,2.53-1.76,4.16-1.76s3.12.59,4.26,1.76c1.14,1.18,1.71,2.58,1.71,4.21v23.99c0,3.98.96,7.07,2.89,9.25,1.93,2.19,4.65,3.28,8.18,3.28s6.27-1.13,8.42-3.38c2.15-2.25,3.23-5.37,3.23-9.35v-23.79c0-1.63.57-3.03,1.71-4.21,1.14-1.18,2.56-1.76,4.26-1.76s3.04.59,4.21,1.76c1.17,1.18,1.76,2.58,1.76,4.21Z"/>
    <path class="st1" d="M565.65,669.87v-40.93c0-1.7.57-3.11,1.71-4.26,1.14-1.14,2.53-1.71,4.16-1.71s3.11.59,4.26,1.76,1.71,2.58,1.71,4.21v2.55c4.18-6,9.56-9.01,16.16-9.01,5.74,0,10.25,1.78,13.51,5.34,3.26,3.56,4.9,8.37,4.9,14.44v27.61c0,1.63-.56,3.02-1.67,4.16-1.11,1.14-2.51,1.71-4.21,1.71s-3.12-.57-4.26-1.71c-1.14-1.14-1.71-2.53-1.71-4.16v-23.99c0-4.05-.97-7.16-2.89-9.35-1.93-2.19-4.65-3.28-8.17-3.28s-6.27,1.14-8.42,3.43-3.23,5.42-3.23,9.4v23.79c0,1.63-.57,3.02-1.71,4.16-1.14,1.14-2.56,1.71-4.26,1.71s-3.02-.57-4.16-1.71c-1.14-1.14-1.71-2.53-1.71-4.16Z"/>
    <path class="st1" d="M623.42,610.24v-.59c0-1.76.63-3.17,1.91-4.21,1.27-1.04,2.89-1.57,4.85-1.57s3.57.52,4.85,1.57c1.27,1.04,1.91,2.45,1.91,4.21v.59c0,1.76-.64,3.18-1.91,4.26-1.27,1.08-2.89,1.62-4.85,1.62s-3.58-.54-4.85-1.62c-1.27-1.08-1.91-2.5-1.91-4.26ZM624.3,669.87v-40.93c0-1.7.57-3.11,1.71-4.26,1.14-1.14,2.53-1.71,4.16-1.71s3.03.59,4.21,1.76,1.76,2.58,1.76,4.21v40.93c0,1.63-.57,3.02-1.71,4.16-1.15,1.14-2.56,1.71-4.26,1.71s-3.02-.57-4.16-1.71c-1.14-1.14-1.71-2.53-1.71-4.16Z"/>
  </g>
  <g>
    <path class="st1" d="M699.6,609.16v60.71c0,1.63-.57,3.02-1.71,4.16s-2.53,1.71-4.16,1.71-3.12-.57-4.26-1.71c-1.14-1.14-1.71-2.53-1.71-4.16v-3.23c-4.57,6.46-10.44,9.69-17.62,9.69-6.46,0-12.08-2.43-16.84-7.29-4.77-4.86-7.15-11.37-7.15-19.53v-.2c0-8.22,2.36-14.75,7.1-19.58,4.73-4.83,10.36-7.25,16.89-7.25,7.11,0,12.99,3.04,17.62,9.11v-22.42c0-1.63.57-3.02,1.71-4.16s2.53-1.71,4.16-1.71,3.12.57,4.26,1.71c1.14,1.14,1.71,2.53,1.71,4.16ZM672.97,632.76c-4.18,0-7.7,1.5-10.58,4.5-2.87,3-4.31,7.02-4.31,12.04v.2c0,4.89,1.45,8.88,4.36,11.95,2.9,3.07,6.41,4.6,10.53,4.6s7.64-1.55,10.57-4.65c2.94-3.1,4.41-7.06,4.41-11.9v-.2c0-4.83-1.47-8.79-4.41-11.9-2.94-3.1-6.46-4.65-10.57-4.65Z"/>
    <path class="st1" d="M726.82,676.33c-5.09,0-9.42-1.42-12.98-4.26-3.56-2.84-5.33-6.74-5.33-11.7v-.2c0-5.42,1.92-9.55,5.78-12.39,3.85-2.84,9.04-4.26,15.57-4.26,4.76,0,9.4.72,13.9,2.15v-1.27c0-3.65-1.09-6.44-3.28-8.37-2.19-1.92-5.37-2.89-9.55-2.89s-8,.69-11.46,2.06c-.65.19-1.27.29-1.86.29-1.37,0-2.55-.47-3.52-1.42-.98-.94-1.47-2.1-1.47-3.47,0-2.29,1.08-3.85,3.23-4.7,5.35-2.02,10.9-3.04,16.65-3.04,7.7,0,13.41,1.93,17.13,5.78,3.72,3.66,5.58,8.98,5.58,15.96v25.46c0,1.63-.55,2.99-1.66,4.07s-2.48,1.62-4.11,1.62-3.08-.49-4.16-1.47c-1.08-.98-1.62-2.15-1.62-3.52v-1.96c-4.18,5.03-9.79,7.54-16.84,7.54ZM730.15,667.72c3.98,0,7.28-1.03,9.89-3.08,2.61-2.06,3.92-4.72,3.92-7.98v-3.52c-3.52-1.37-7.44-2.06-11.75-2.06-3.79,0-6.76.77-8.91,2.3-2.15,1.53-3.23,3.64-3.23,6.31v.2c0,2.41.94,4.33,2.84,5.73,1.89,1.41,4.31,2.11,7.24,2.11Z"/>
    <path class="st1" d="M784.59,676.23c-7.18,0-13.74-2.06-19.68-6.17-1.5-.78-2.25-2.15-2.25-4.11,0-1.3.46-2.43,1.37-3.38.91-.95,2.06-1.42,3.43-1.42.91,0,1.76.23,2.54.69,4.96,3.33,9.92,5,14.88,5,2.55,0,4.52-.51,5.92-1.52,1.4-1.01,2.1-2.36,2.1-4.06v-.19c0-2.48-3.46-4.77-10.38-6.85-.52-.2-.91-.33-1.17-.39-2.35-.65-4.31-1.3-5.88-1.96-1.57-.65-3.23-1.55-4.99-2.69-1.76-1.14-3.08-2.59-3.96-4.36-.88-1.76-1.32-3.82-1.32-6.17v-.19c0-4.76,1.74-8.58,5.24-11.46,3.49-2.87,7.88-4.31,13.17-4.31,5.55,0,10.97,1.4,16.25,4.21,1.89.98,2.84,2.48,2.84,4.5,0,1.37-.47,2.52-1.42,3.43-.95.92-2.11,1.37-3.48,1.37-.78,0-1.57-.19-2.35-.59-4.57-2.35-8.62-3.52-12.14-3.52-2.22,0-3.98.47-5.29,1.42-1.31.95-1.96,2.17-1.96,3.67v.2c0,1.63.88,2.92,2.64,3.87s4.44,2,8.03,3.18c.46.13.78.23.98.29,2.28.72,4.21,1.42,5.78,2.11,1.57.69,3.21,1.62,4.95,2.79,1.73,1.17,3.05,2.61,3.96,4.31.91,1.7,1.37,3.66,1.37,5.87v.2c0,5.22-1.8,9.24-5.39,12.04-3.59,2.81-8.19,4.21-13.8,4.21Z"/>
    <path class="st1" d="M840.2,685.53v-56.6c0-1.7.57-3.11,1.71-4.26,1.14-1.14,2.53-1.71,4.16-1.71s3.11.59,4.26,1.76,1.71,2.58,1.71,4.21v3.23c4.57-6.46,10.44-9.69,17.63-9.69,6.46,0,12.08,2.42,16.84,7.25,4.76,4.83,7.15,11.36,7.15,19.58v.2c0,8.16-2.37,14.67-7.1,19.53s-10.36,7.29-16.89,7.29c-7.18,0-13.06-3.04-17.63-9.11v18.31c0,1.63-.57,3.02-1.71,4.16s-2.56,1.71-4.26,1.71-3.02-.57-4.16-1.71c-1.14-1.14-1.71-2.53-1.71-4.16ZM866.84,666.05c4.18,0,7.69-1.52,10.53-4.55,2.84-3.04,4.26-7.03,4.26-11.99v-.2c0-4.89-1.44-8.87-4.31-11.94-2.87-3.07-6.37-4.6-10.48-4.6s-7.65,1.55-10.62,4.65c-2.97,3.1-4.45,7.07-4.45,11.9v.2c0,4.83,1.48,8.8,4.45,11.9,2.97,3.1,6.51,4.65,10.62,4.65Z"/>
    <path class="st1" d="M918.24,676.33c-5.09,0-9.42-1.42-12.98-4.26-3.56-2.84-5.33-6.74-5.33-11.7v-.2c0-5.42,1.92-9.55,5.78-12.39,3.85-2.84,9.04-4.26,15.57-4.26,4.76,0,9.4.72,13.9,2.15v-1.27c0-3.65-1.09-6.44-3.28-8.37-2.19-1.92-5.37-2.89-9.55-2.89s-8,.69-11.46,2.06c-.65.19-1.27.29-1.86.29-1.37,0-2.55-.47-3.52-1.42-.98-.94-1.47-2.1-1.47-3.47,0-2.29,1.08-3.85,3.23-4.7,5.35-2.02,10.9-3.04,16.65-3.04,7.7,0,13.41,1.93,17.13,5.78,3.72,3.66,5.58,8.98,5.58,15.96v25.46c0,1.63-.55,2.99-1.66,4.07s-2.48,1.62-4.11,1.62-3.08-.49-4.16-1.47c-1.08-.98-1.62-2.15-1.62-3.52v-1.96c-4.18,5.03-9.79,7.54-16.84,7.54ZM921.57,667.72c3.98,0,7.28-1.03,9.89-3.08,2.61-2.06,3.92-4.72,3.92-7.98v-3.52c-3.52-1.37-7.44-2.06-11.75-2.06-3.79,0-6.76.77-8.91,2.3-2.15,1.53-3.23,3.64-3.23,6.31v.2c0,2.41.94,4.33,2.84,5.73,1.89,1.41,4.31,2.11,7.24,2.11Z"/>
    <path class="st1" d="M958.29,669.87v-40.93c0-1.7.57-3.11,1.71-4.26,1.14-1.14,2.53-1.71,4.16-1.71s3.11.59,4.26,1.76,1.71,2.58,1.71,4.21v5.29c1.44-3.33,3.33-6.06,5.68-8.18,2.35-2.12,4.8-3.18,7.34-3.18,1.83,0,3.26.54,4.31,1.62,1.04,1.08,1.57,2.5,1.57,4.26,0,1.5-.44,2.76-1.32,3.77-.88,1.01-2.01,1.65-3.38,1.91-4.37.78-7.83,2.86-10.38,6.22-2.54,3.36-3.82,8.01-3.82,13.95v15.27c0,1.63-.59,3.02-1.76,4.16-1.18,1.14-2.58,1.71-4.21,1.71s-3.02-.57-4.16-1.71c-1.14-1.14-1.71-2.53-1.71-4.16Z"/>
    <path class="st1" d="M1011.06,676.33c-5.09,0-9.42-1.42-12.98-4.26-3.56-2.84-5.33-6.74-5.33-11.7v-.2c0-5.42,1.92-9.55,5.78-12.39,3.85-2.84,9.04-4.26,15.57-4.26,4.76,0,9.4.72,13.9,2.15v-1.27c0-3.65-1.09-6.44-3.28-8.37-2.19-1.92-5.37-2.89-9.55-2.89s-8,.69-11.46,2.06c-.65.19-1.27.29-1.86.29-1.37,0-2.55-.47-3.52-1.42-.98-.94-1.47-2.1-1.47-3.47,0-2.29,1.08-3.85,3.23-4.7,5.35-2.02,10.9-3.04,16.65-3.04,7.7,0,13.41,1.93,17.13,5.78,3.72,3.66,5.58,8.98,5.58,15.96v25.46c0,1.63-.55,2.99-1.66,4.07s-2.48,1.62-4.11,1.62-3.08-.49-4.16-1.47c-1.08-.98-1.62-2.15-1.62-3.52v-1.96c-4.18,5.03-9.79,7.54-16.84,7.54ZM1014.39,667.72c3.98,0,7.28-1.03,9.89-3.08,2.61-2.06,3.92-4.72,3.92-7.98v-3.52c-3.52-1.37-7.44-2.06-11.75-2.06-3.79,0-6.76.77-8.91,2.3-2.15,1.53-3.23,3.64-3.23,6.31v.2c0,2.41.94,4.33,2.84,5.73,1.89,1.41,4.31,2.11,7.24,2.11Z"/>
  </g>
  <path class="st1" d="M1075.31,691.21h-.88c-4.31-.13-6.46-1.76-6.46-4.89,0-1.44.46-2.61,1.37-3.52.91-.92,2.02-1.37,3.33-1.37.06,0,.19.03.39.1h.3c2.94,0,4.4-1.86,4.4-5.58v-47c0-1.7.57-3.11,1.71-4.26,1.14-1.14,2.53-1.71,4.16-1.71s3.03.59,4.21,1.76c1.18,1.18,1.76,2.58,1.76,4.21v47c0,5.09-1.26,8.91-3.77,11.46s-6.02,3.82-10.53,3.82ZM1076.88,610.24v-.59c0-1.76.63-3.17,1.91-4.21,1.27-1.04,2.89-1.57,4.85-1.57s3.57.52,4.85,1.57c1.27,1.04,1.91,2.45,1.91,4.21v.59c0,1.76-.64,3.18-1.91,4.26-1.27,1.08-2.89,1.62-4.85,1.62s-3.58-.54-4.85-1.62c-1.27-1.08-1.91-2.5-1.91-4.26Z"/>
  <path class="st1" d="M1126.91,676.43c-7.84,0-14.36-2.6-19.58-7.78-5.22-5.19-7.83-11.5-7.83-18.95v-.19c0-7.51,2.64-13.89,7.93-19.14s11.85-7.88,19.68-7.88,14.38,2.61,19.63,7.83c5.25,5.22,7.88,11.55,7.88,19v.2c0,7.44-2.64,13.79-7.93,19.04-5.29,5.26-11.88,7.88-19.78,7.88ZM1127.11,666.05c4.7,0,8.49-1.58,11.36-4.75,2.87-3.16,4.31-7.03,4.31-11.6v-.19c0-4.63-1.5-8.57-4.5-11.8-3-3.23-6.79-4.85-11.36-4.85s-8.39,1.59-11.26,4.75c-2.87,3.17-4.31,7.07-4.31,11.7v.2c0,4.57,1.5,8.47,4.5,11.7,3,3.23,6.76,4.85,11.26,4.85ZM1126.72,617.48c-1.96,0-2.94-.69-2.94-2.06,0-.65.26-1.37.78-2.15l5.58-8.62c1.17-1.89,2.74-2.84,4.7-2.84,1.63,0,3.22.41,4.75,1.22,1.53.82,2.3,1.68,2.3,2.59,0,.98-.56,1.96-1.67,2.94l-6.56,6.27c-1.89,1.76-4.21,2.64-6.95,2.64Z"/>
  <path class="st1" d="M1190.07,671.04c-1.57,3.46-3.82,5.19-6.76,5.19h-.59c-3,0-5.26-1.73-6.76-5.19l-17.23-39.46c-.46-1.37-.69-2.35-.69-2.94,0-1.5.59-2.82,1.76-3.96,1.17-1.14,2.55-1.71,4.11-1.71,2.74,0,4.7,1.44,5.88,4.31l13.32,34.27,13.51-34.46c1.18-2.74,3.03-4.11,5.58-4.11,1.63,0,3,.54,4.11,1.62s1.66,2.43,1.66,4.06c0,.98-.23,1.93-.69,2.84l-17.23,39.56Z"/>
  <path class="st1" d="M1256.65,669.58c-5.09,4.57-11.29,6.85-18.6,6.85s-13.89-2.5-18.95-7.49-7.59-11.44-7.59-19.34v-.2c0-7.5,2.38-13.87,7.15-19.09,4.76-5.22,10.8-7.83,18.12-7.83,5.22,0,9.76,1.32,13.61,3.97,3.85,2.64,6.64,5.84,8.37,9.6,1.73,3.75,2.59,7.72,2.59,11.9,0,1.63-.54,2.99-1.62,4.06s-2.4,1.62-3.96,1.62h-32.41c.65,4.11,2.32,7.33,4.99,9.65,2.68,2.32,5.97,3.48,9.89,3.48,4.5,0,8.58-1.5,12.24-4.51.92-.72,1.93-1.08,3.04-1.08,1.3,0,2.41.46,3.33,1.37s1.37,2.06,1.37,3.43-.52,2.58-1.57,3.62ZM1223.26,645.78h26.54c-.39-3.98-1.73-7.24-4.02-9.79s-5.32-3.82-9.1-3.82c-3.59,0-6.59,1.26-9.01,3.77-2.41,2.51-3.88,5.8-4.41,9.84Z"/>
  <path class="st1" d="M1270.84,669.87v-40.93c0-1.7.57-3.11,1.71-4.26,1.14-1.14,2.53-1.71,4.16-1.71s3.11.59,4.26,1.76,1.71,2.58,1.71,4.21v2.55c4.18-6,9.56-9.01,16.16-9.01,5.74,0,10.25,1.78,13.51,5.34,3.26,3.56,4.9,8.37,4.9,14.44v27.61c0,1.63-.56,3.02-1.67,4.16-1.11,1.14-2.51,1.71-4.21,1.71s-3.12-.57-4.26-1.71c-1.14-1.14-1.71-2.53-1.71-4.16v-23.99c0-4.05-.97-7.16-2.89-9.35-1.93-2.19-4.65-3.28-8.17-3.28s-6.27,1.14-8.42,3.43-3.23,5.42-3.23,9.4v23.79c0,1.63-.57,3.02-1.71,4.16-1.14,1.14-2.56,1.71-4.26,1.71s-3.02-.57-4.16-1.71c-1.14-1.14-1.71-2.53-1.71-4.16Z"/>
  <g>
    <path class="st1" d="M1371.11,669.58c-5.09,4.57-11.29,6.85-18.6,6.85s-13.89-2.5-18.95-7.49c-5.06-4.99-7.59-11.44-7.59-19.34v-.2c0-7.5,2.38-13.87,7.15-19.09,4.76-5.22,10.8-7.83,18.12-7.83,5.22,0,9.76,1.32,13.61,3.97,3.85,2.64,6.64,5.84,8.37,9.6,1.73,3.75,2.59,7.72,2.59,11.9,0,1.63-.54,2.99-1.62,4.06s-2.4,1.62-3.96,1.62h-32.41c.65,4.11,2.32,7.33,4.99,9.65,2.68,2.32,5.97,3.48,9.89,3.48,4.5,0,8.58-1.5,12.24-4.51.92-.72,1.93-1.08,3.04-1.08,1.3,0,2.41.46,3.33,1.37s1.37,2.06,1.37,3.43-.52,2.58-1.57,3.62ZM1337.72,645.78h26.54c-.39-3.98-1.73-7.24-4.02-9.79s-5.32-3.82-9.1-3.82c-3.59,0-6.59,1.26-9.01,3.77-2.41,2.51-3.88,5.8-4.41,9.84Z"/>
    <path class="st1" d="M1403.12,676.23c-7.18,0-13.74-2.06-19.68-6.17-1.5-.78-2.25-2.15-2.25-4.11,0-1.3.46-2.43,1.37-3.38.91-.95,2.06-1.42,3.43-1.42.91,0,1.76.23,2.54.69,4.96,3.33,9.92,5,14.88,5,2.55,0,4.52-.51,5.92-1.52,1.4-1.01,2.1-2.36,2.1-4.06v-.19c0-2.48-3.46-4.77-10.38-6.85-.52-.2-.91-.33-1.17-.39-2.35-.65-4.31-1.3-5.88-1.96-1.57-.65-3.23-1.55-4.99-2.69-1.76-1.14-3.08-2.59-3.96-4.36-.88-1.76-1.32-3.82-1.32-6.17v-.19c0-4.76,1.74-8.58,5.24-11.46,3.49-2.87,7.88-4.31,13.17-4.31,5.55,0,10.97,1.4,16.25,4.21,1.89.98,2.84,2.48,2.84,4.5,0,1.37-.47,2.52-1.42,3.43-.95.92-2.11,1.37-3.48,1.37-.78,0-1.57-.19-2.35-.59-4.57-2.35-8.62-3.52-12.14-3.52-2.22,0-3.98.47-5.29,1.42-1.31.95-1.96,2.17-1.96,3.67v.2c0,1.63.88,2.92,2.64,3.87s4.44,2,8.03,3.18c.46.13.78.23.98.29,2.28.72,4.21,1.42,5.78,2.11,1.57.69,3.21,1.62,4.95,2.79,1.73,1.17,3.05,2.61,3.96,4.31.91,1.7,1.37,3.66,1.37,5.87v.2c0,5.22-1.8,9.24-5.39,12.04s-8.19,4.21-13.8,4.21Z"/>
    <path class="st1" d="M1509.55,609.16v60.71c0,1.63-.57,3.02-1.71,4.16s-2.53,1.71-4.16,1.71-3.12-.57-4.26-1.71c-1.14-1.14-1.71-2.53-1.71-4.16v-3.23c-4.57,6.46-10.44,9.69-17.62,9.69-6.46,0-12.08-2.43-16.84-7.29-4.77-4.86-7.15-11.37-7.15-19.53v-.2c0-8.22,2.36-14.75,7.1-19.58,4.73-4.83,10.36-7.25,16.89-7.25,7.11,0,12.99,3.04,17.62,9.11v-22.42c0-1.63.57-3.02,1.71-4.16s2.53-1.71,4.16-1.71,3.12.57,4.26,1.71c1.14,1.14,1.71,2.53,1.71,4.16ZM1482.92,632.76c-4.18,0-7.7,1.5-10.58,4.5-2.87,3-4.31,7.02-4.31,12.04v.2c0,4.89,1.45,8.88,4.36,11.95,2.9,3.07,6.41,4.6,10.53,4.6s7.64-1.55,10.57-4.65c2.94-3.1,4.41-7.06,4.41-11.9v-.2c0-4.83-1.47-8.79-4.41-11.9-2.94-3.1-6.46-4.65-10.57-4.65Z"/>
    <path class="st1" d="M1564.19,669.58c-5.09,4.57-11.29,6.85-18.6,6.85s-13.89-2.5-18.95-7.49-7.59-11.44-7.59-19.34v-.2c0-7.5,2.38-13.87,7.15-19.09,4.76-5.22,10.8-7.83,18.12-7.83,5.22,0,9.76,1.32,13.61,3.97,3.85,2.64,6.64,5.84,8.37,9.6,1.73,3.75,2.59,7.72,2.59,11.9,0,1.63-.54,2.99-1.62,4.06s-2.4,1.62-3.96,1.62h-32.41c.65,4.11,2.32,7.33,4.99,9.65,2.68,2.32,5.97,3.48,9.89,3.48,4.5,0,8.58-1.5,12.24-4.51.92-.72,1.93-1.08,3.04-1.08,1.3,0,2.41.46,3.33,1.37s1.37,2.06,1.37,3.43-.52,2.58-1.57,3.62ZM1530.8,645.78h26.54c-.39-3.98-1.73-7.24-4.02-9.79s-5.32-3.82-9.1-3.82c-3.59,0-6.59,1.26-9.01,3.77-2.41,2.51-3.88,5.8-4.41,9.84Z"/>
  </g>
  <path class="st1" d="M1601.41,670.16c0-.78.26-1.7.78-2.74l25.46-56.79c1.5-3.26,3.92-4.89,7.25-4.89h.59c3.26,0,5.65,1.63,7.15,4.89l25.46,56.79c.46.85.69,1.7.69,2.55,0,1.63-.54,3-1.62,4.11-1.08,1.11-2.43,1.67-4.06,1.67-2.74,0-4.7-1.4-5.87-4.21l-5.58-12.83h-33.29l-5.78,13.22c-1.04,2.55-2.91,3.82-5.58,3.82-1.57,0-2.89-.54-3.96-1.62-1.08-1.08-1.62-2.4-1.62-3.97ZM1622.95,648.03h24.09l-12.04-27.71-12.05,27.71Z"/>
  <path class="st1" d="M1677.69,669.87v-40.93c0-1.7.57-3.11,1.71-4.26,1.14-1.14,2.53-1.71,4.16-1.71s3.11.59,4.26,1.76,1.71,2.58,1.71,4.21v5.29c1.44-3.33,3.33-6.06,5.68-8.18,2.35-2.12,4.8-3.18,7.34-3.18,1.83,0,3.26.54,4.31,1.62,1.04,1.08,1.57,2.5,1.57,4.26,0,1.5-.44,2.76-1.32,3.77-.88,1.01-2.01,1.65-3.38,1.91-4.37.78-7.83,2.86-10.38,6.22-2.54,3.36-3.82,8.01-3.82,13.95v15.27c0,1.63-.59,3.02-1.76,4.16-1.18,1.14-2.58,1.71-4.21,1.71s-3.02-.57-4.16-1.71c-1.14-1.14-1.71-2.53-1.71-4.16Z"/>
  <g>
    <path class="st1" d="M1736.92,691.12c-6.99,0-13.64-1.53-19.97-4.6-2.22-.85-3.33-2.42-3.33-4.7,0-1.31.49-2.45,1.47-3.43.98-.98,2.15-1.47,3.52-1.47.78,0,1.5.16,2.15.49,4.89,2.74,10.18,4.11,15.86,4.11,5.29,0,9.33-1.36,12.14-4.07s4.21-6.64,4.21-11.8v-4.02c-4.89,6.33-10.97,9.5-18.21,9.5-6.4,0-11.91-2.2-16.55-6.61-4.63-4.4-6.95-10.26-6.95-17.57v-.19c0-7.31,2.33-13.19,7-17.63,4.66-4.44,10.16-6.66,16.5-6.66,7.18,0,13.22,2.94,18.11,8.81v-2.45c0-1.63.57-3.02,1.71-4.16s2.53-1.71,4.16-1.71,3.12.59,4.26,1.76c1.14,1.18,1.71,2.58,1.71,4.21v35.74c0,8.61-2.19,15.11-6.56,19.48-4.64,4.63-11.72,6.95-21.25,6.95ZM1737.9,661.06c4.18,0,7.75-1.34,10.72-4.02,2.97-2.68,4.45-6.07,4.45-10.18v-.19c0-4.11-1.49-7.51-4.45-10.18-2.97-2.68-6.55-4.02-10.72-4.02s-7.67,1.32-10.48,3.97-4.21,6.06-4.21,10.23v.19c0,4.18,1.42,7.59,4.26,10.23,2.84,2.64,6.32,3.97,10.43,3.97Z"/>
    <path class="st1" d="M1819.36,669.58c-5.09,4.57-11.29,6.85-18.6,6.85s-13.89-2.5-18.95-7.49-7.59-11.44-7.59-19.34v-.2c0-7.5,2.38-13.87,7.15-19.09,4.76-5.22,10.8-7.83,18.12-7.83,5.22,0,9.76,1.32,13.61,3.97,3.85,2.64,6.64,5.84,8.37,9.6,1.73,3.75,2.59,7.72,2.59,11.9,0,1.63-.54,2.99-1.62,4.06s-2.4,1.62-3.96,1.62h-32.41c.65,4.11,2.32,7.33,4.99,9.65,2.68,2.32,5.97,3.48,9.89,3.48,4.5,0,8.58-1.5,12.24-4.51.92-.72,1.93-1.08,3.04-1.08,1.3,0,2.41.46,3.33,1.37s1.37,2.06,1.37,3.43-.52,2.58-1.57,3.62ZM1785.97,645.78h26.54c-.39-3.98-1.73-7.24-4.02-9.79s-5.32-3.82-9.1-3.82c-3.59,0-6.59,1.26-9.01,3.77-2.41,2.51-3.88,5.8-4.41,9.84Z"/>
    <path class="st1" d="M1833.66,669.87v-40.93c0-1.7.57-3.11,1.71-4.26,1.14-1.14,2.53-1.71,4.16-1.71s3.11.59,4.26,1.76,1.71,2.58,1.71,4.21v2.55c4.18-6,9.56-9.01,16.16-9.01,5.74,0,10.25,1.78,13.51,5.34,3.26,3.56,4.9,8.37,4.9,14.44v27.61c0,1.63-.56,3.02-1.67,4.16-1.11,1.14-2.51,1.71-4.21,1.71s-3.12-.57-4.26-1.71c-1.14-1.14-1.71-2.53-1.71-4.16v-23.99c0-4.05-.97-7.16-2.89-9.35-1.93-2.19-4.65-3.28-8.17-3.28s-6.27,1.14-8.42,3.43-3.23,5.42-3.23,9.4v23.79c0,1.63-.57,3.02-1.71,4.16-1.14,1.14-2.56,1.71-4.26,1.71s-3.02-.57-4.16-1.71c-1.14-1.14-1.71-2.53-1.71-4.16Z"/>
  </g>
  <g>
    <path class="st1" d="M1908.87,676.14c-9.92,0-14.88-5.06-14.88-15.18v-27.22h-1.96c-1.44,0-2.64-.49-3.62-1.47s-1.47-2.19-1.47-3.62.49-2.64,1.47-3.62c.98-.98,2.19-1.47,3.62-1.47h1.96v-8.81c0-1.63.59-3.02,1.76-4.16,1.18-1.14,2.58-1.71,4.21-1.71s3.02.57,4.16,1.71c1.14,1.14,1.71,2.53,1.71,4.16v8.81h9.3c1.44,0,2.66.49,3.67,1.47,1.01.98,1.52,2.19,1.52,3.62s-.51,2.64-1.52,3.62c-1.01.98-2.24,1.47-3.67,1.47h-9.3v25.36c0,4.31,2.12,6.46,6.37,6.46.52,0,1.13-.05,1.81-.15s1.06-.15,1.13-.15c1.37,0,2.55.47,3.52,1.42.98.95,1.47,2.11,1.47,3.48,0,2.22-1.04,3.75-3.13,4.6-2.61.92-5.32,1.37-8.13,1.37Z"/>
    <path class="st1" d="M1928.94,610.24v-.59c0-1.76.63-3.17,1.91-4.21,1.27-1.04,2.89-1.57,4.85-1.57s3.57.52,4.85,1.57c1.27,1.04,1.91,2.45,1.91,4.21v.59c0,1.76-.64,3.18-1.91,4.26-1.27,1.08-2.89,1.62-4.85,1.62s-3.58-.54-4.85-1.62c-1.27-1.08-1.91-2.5-1.91-4.26ZM1929.82,669.87v-40.93c0-1.7.57-3.11,1.71-4.26,1.14-1.14,2.53-1.71,4.16-1.71s3.03.59,4.21,1.76,1.76,2.58,1.76,4.21v40.93c0,1.63-.57,3.02-1.71,4.16-1.15,1.14-2.56,1.71-4.26,1.71s-3.02-.57-4.16-1.71c-1.14-1.14-1.71-2.53-1.71-4.16Z"/>
    <path class="st1" d="M1954.49,669.87v-40.93c0-1.7.57-3.11,1.71-4.26,1.14-1.14,2.53-1.71,4.16-1.71s3.11.59,4.26,1.76,1.71,2.58,1.71,4.21v2.55c4.18-6,9.56-9.01,16.16-9.01,5.74,0,10.25,1.78,13.51,5.34,3.26,3.56,4.9,8.37,4.9,14.44v27.61c0,1.63-.56,3.02-1.67,4.16-1.11,1.14-2.51,1.71-4.21,1.71s-3.12-.57-4.26-1.71c-1.14-1.14-1.71-2.53-1.71-4.16v-23.99c0-4.05-.97-7.16-2.89-9.35-1.93-2.19-4.65-3.28-8.17-3.28s-6.27,1.14-8.42,3.43c-2.15,2.29-3.23,5.42-3.23,9.4v23.79c0,1.63-.57,3.02-1.71,4.16-1.14,1.14-2.56,1.71-4.26,1.71s-3.02-.57-4.16-1.71c-1.14-1.14-1.71-2.53-1.71-4.16Z"/>
  </g>
  <path class="st1" d="M2027.14,676.33c-5.09,0-9.42-1.42-12.98-4.26-3.56-2.84-5.33-6.74-5.33-11.7v-.2c0-5.42,1.92-9.55,5.78-12.39,3.85-2.84,9.04-4.26,15.57-4.26,4.76,0,9.4.72,13.9,2.15v-1.27c0-3.65-1.09-6.44-3.28-8.37-2.19-1.92-5.37-2.89-9.55-2.89s-8,.69-11.46,2.06c-.65.19-1.27.29-1.86.29-1.37,0-2.55-.47-3.52-1.42-.98-.94-1.47-2.1-1.47-3.47,0-2.29,1.08-3.85,3.23-4.7,5.35-2.02,10.9-3.04,16.65-3.04,7.7,0,13.41,1.93,17.13,5.78,3.72,3.66,5.58,8.98,5.58,15.96v25.46c0,1.63-.55,2.99-1.66,4.07s-2.48,1.62-4.11,1.62-3.08-.49-4.16-1.47c-1.08-.98-1.62-2.15-1.62-3.52v-1.96c-4.18,5.03-9.79,7.54-16.84,7.54ZM2030.47,667.72c3.98,0,7.28-1.03,9.89-3.08,2.61-2.06,3.92-4.72,3.92-7.98v-3.52c-3.52-1.37-7.44-2.06-11.75-2.06-3.79,0-6.76.77-8.91,2.3-2.15,1.53-3.23,3.64-3.23,6.31v.2c0,2.41.94,4.33,2.84,5.73,1.89,1.41,4.31,2.11,7.24,2.11Z"/>
  <path class="st1" d="M1370.96,159.83v-64.46c0-2.49.87-4.61,2.63-6.37,1.75-1.75,3.87-2.63,6.36-2.63h45.78c2.26,0,4.18.8,5.78,2.39,1.59,1.6,2.39,3.52,2.39,5.78s-.8,4.19-2.39,5.78c-1.6,1.6-3.52,2.39-5.78,2.39h-36.79v17.4h31.53c2.26,0,4.18.8,5.78,2.39,1.6,1.6,2.39,3.52,2.39,5.78s-.8,4.19-2.39,5.78c-1.6,1.6-3.52,2.39-5.78,2.39h-31.53v23.36c0,2.49-.88,4.61-2.63,6.37-1.75,1.75-3.88,2.63-6.37,2.63s-4.61-.88-6.36-2.63c-1.75-1.75-2.63-3.87-2.63-6.37Z"/>
  <g>
    <path class="st1" d="M1474.32,169.41c-11.13,0-19.81-3.09-26.04-9.28-6.23-6.19-9.34-15.2-9.34-27.03v-38.42c0-2.49.87-4.61,2.63-6.37s3.87-2.63,6.36-2.63,4.61.87,6.37,2.63c1.75,1.75,2.63,3.87,2.63,6.37v37.95c0,6.54,1.54,11.54,4.61,15.01,3.07,3.47,7.42,5.2,13.02,5.2s9.95-1.67,13.02-5.02c3.07-3.35,4.61-8.21,4.61-14.6v-38.54c0-2.49.87-4.61,2.63-6.37s3.87-2.63,6.36-2.63,4.61.87,6.37,2.63c1.75,1.75,2.63,3.87,2.63,6.37v37.84c0,12.15-3.17,21.33-9.52,27.56-6.35,6.23-15.12,9.34-26.33,9.34Z"/>
    <path class="st1" d="M1521.15,159.95v-65.05c0-2.49.87-4.61,2.63-6.36,1.75-1.75,3.87-2.63,6.36-2.63h1.87c3.5,0,6.62,1.75,9.34,5.26l34.69,45.54v-42.16c0-2.49.85-4.59,2.57-6.31,1.71-1.71,3.81-2.57,6.31-2.57s4.59.86,6.31,2.57c1.71,1.71,2.57,3.82,2.57,6.31v65.05c0,2.49-.87,4.61-2.63,6.37s-3.87,2.63-6.36,2.63h-.58c-3.5,0-6.62-1.75-9.34-5.26l-35.97-47.18v43.79c0,2.49-.86,4.59-2.57,6.31-1.71,1.71-3.82,2.57-6.31,2.57s-4.59-.86-6.31-2.57c-1.71-1.71-2.57-3.81-2.57-6.31Z"/>
  </g>
  <path class="st1" d="M1605.81,159.13v-63.76c0-2.49.87-4.61,2.63-6.37,1.75-1.75,3.87-2.63,6.36-2.63h22.89c12.69,0,23.1,3.87,31.24,11.62,8.13,7.75,12.2,17.42,12.2,29.02v.23c0,11.68-4.07,21.41-12.2,29.2-8.14,7.79-18.55,11.68-31.24,11.68h-22.89c-2.49,0-4.61-.88-6.36-2.63-1.75-1.75-2.63-3.87-2.63-6.37ZM1623.79,151.89h13.9c7.32,0,13.26-2.26,17.81-6.77,4.55-4.51,6.83-10.39,6.83-17.63v-.23c0-7.24-2.28-13.16-6.83-17.75-4.55-4.59-10.49-6.89-17.81-6.89h-13.9v49.28Z"/>
  <path class="st1" d="M1680.67,160.42c0-1.01.35-2.3,1.05-3.85l28.5-64.35c2.1-4.75,5.61-7.12,10.51-7.12h1.05c4.83,0,8.29,2.38,10.39,7.12l28.49,64.35c.62,1.4.94,2.61.94,3.62,0,2.41-.82,4.46-2.45,6.13-1.64,1.68-3.66,2.51-6.07,2.51-3.97,0-6.85-2.06-8.64-6.19l-5.49-12.85h-35.97l-5.72,13.43c-1.64,3.74-4.4,5.61-8.29,5.61-2.34,0-4.3-.82-5.9-2.45-1.6-1.63-2.39-3.62-2.39-5.96ZM1709.63,133.91h22.65l-11.33-26.98-11.33,26.98Z"/>
  <g>
    <path class="st1" d="M1803.65,169.53c-11.99,0-21.98-4.05-29.96-12.15-7.98-8.1-11.97-18.06-11.97-29.9v-.23c0-11.83,4.01-21.84,12.03-30.01,8.02-8.17,18.22-12.26,30.6-12.26,10.74,0,19.85,2.76,27.33,8.29,2.34,1.71,3.5,4.09,3.5,7.12,0,2.41-.86,4.48-2.57,6.19-1.71,1.71-3.82,2.57-6.31,2.57-1.71,0-3.5-.58-5.37-1.75-5.22-3.89-10.79-5.84-16.7-5.84-6.77,0-12.42,2.47-16.94,7.42-4.52,4.94-6.77,10.96-6.77,18.04v.23c0,7.16,2.24,13.24,6.72,18.22,4.48,4.98,10.14,7.47,16.99,7.47,6.46,0,12.38-2.14,17.75-6.42,1.56-1.32,3.35-1.98,5.37-1.98,2.26,0,4.22.82,5.9,2.45,1.67,1.63,2.51,3.58,2.51,5.84,0,2.57-1.01,4.71-3.04,6.42-7.87,6.85-17.56,10.28-29.08,10.28Z"/>
    <path class="st1" d="M1845.1,159.83v-65.16c0-2.49.88-4.61,2.63-6.37,1.75-1.75,3.87-2.63,6.37-2.63s4.61.87,6.36,2.63,2.63,3.87,2.63,6.37v65.16c0,2.49-.87,4.61-2.63,6.37-1.75,1.75-3.87,2.63-6.36,2.63s-4.61-.88-6.37-2.63c-1.75-1.75-2.63-3.87-2.63-6.37Z"/>
    <path class="st1" d="M1947.11,157.21c-8.29,8.21-18.67,12.32-31.12,12.32s-22.79-4.07-31.01-12.2c-8.21-8.14-12.32-18.08-12.32-29.84v-.23c0-11.75,4.15-21.74,12.44-29.95,8.29-8.21,18.66-12.32,31.12-12.32s22.79,4.07,31.01,12.2c8.21,8.14,12.32,18.08,12.32,29.84v.23c0,11.76-4.14,21.74-12.44,29.95ZM1898.47,145.47c4.67,4.98,10.59,7.47,17.75,7.47s13.04-2.45,17.64-7.36c4.59-4.91,6.89-10.94,6.89-18.1v-.23c0-7.16-2.34-13.23-7.01-18.22-4.67-4.98-10.59-7.47-17.75-7.47s-13.04,2.45-17.63,7.36c-4.6,4.91-6.89,10.94-6.89,18.1v.23c0,7.16,2.34,13.24,7.01,18.22ZM1915.64,79.49c-1.32,0-2.39-.27-3.21-.82-.82-.54-1.23-1.28-1.23-2.22,0-.86.39-1.91,1.17-3.15l6.42-10.04c1.63-2.65,3.85-3.97,6.65-3.97,2.26,0,4.48.57,6.66,1.69,2.18,1.13,3.27,2.36,3.27,3.68,0,1.4-.78,2.8-2.33,4.2l-7.24,6.77c-2.73,2.57-6.11,3.85-10.16,3.85Z"/>
  </g>
  <path class="st1" d="M1967.96,159.95v-65.05c0-2.49.87-4.61,2.63-6.36,1.75-1.75,3.87-2.63,6.36-2.63h1.87c3.5,0,6.62,1.75,9.34,5.26l34.69,45.54v-42.16c0-2.49.85-4.59,2.57-6.31,1.71-1.71,3.81-2.57,6.31-2.57s4.59.86,6.31,2.57c1.71,1.71,2.57,3.82,2.57,6.31v65.05c0,2.49-.87,4.61-2.63,6.37-1.75,1.75-3.87,2.63-6.36,2.63h-.58c-3.5,0-6.62-1.75-9.34-5.26l-35.97-47.18v43.79c0,2.49-.86,4.59-2.57,6.31-1.71,1.71-3.82,2.57-6.31,2.57s-4.59-.86-6.31-2.57c-1.71-1.71-2.57-3.81-2.57-6.31Z"/>
</svg>