<?xml version="1.0" encoding="utf-8"?>
<svg xmlns="http://www.w3.org/2000/svg" id="Ebene_1" style="enable-background:new 0 0 811 811;" version="1.1" viewBox="0 0 811 811" x="0px" y="0px">
<style type="text/css">
	.st0{fill:#002147;}
	.st1{fill:#247066;}
	.st2{fill:#00FF91;}
	.st3{fill:#FF00FF;}
	.st4{fill:#0083F9;}
	.st5{fill:none;stroke:#FF00FF;stroke-miterlimit:10;}
</style>
<g>
	<path class="st1" d="M317.88,442.42c-57.16-33-67.23-83-30.07-121.71c2.8-2.91,1.02-7.75-3-8.21&#xA;		c-33.39-3.79-65.3-13.15-91.17-28.09l-63.6-36.72c-1.51-0.87-3.37-0.87-4.88,0L82.2,272.5c-3.25,1.88-3.25,6.58,0,8.46l66.65,38.48&#xA;		c3.25,1.88,3.25,6.58,0,8.46L82.2,366.38c-3.25,1.88-3.25,6.58,0,8.46l66.65,38.48c3.25,1.88,3.25,6.58,0,8.46L82.2,460.25&#xA;		c-3.25,1.88-3.25,6.58,0,8.46l66.65,38.48c3.25,1.88,3.25,6.58,0,8.46L82.2,554.13c-3.25,1.88-3.25,6.58,0,8.46l321.02,185.34&#xA;		c1.51,0.87,3.37,0.87,4.88,0l212.15-122.49c3.25-1.88,3.25-6.58,0-8.46L317.88,442.42L317.88,442.42z"/>
	<path class="st2" d="M660.41,320.64l66.65-38.48c3.25-1.88,3.25-6.58,0-8.46L406.04,88.35c-1.51-0.87-3.37-0.87-4.88,0&#xA;		L185.79,212.69c-3.25,1.88-3.25,6.58,0,8.46l58.72,33.9c38.56,22.26,99.78,23.59,140.64,3.93c0.12-0.06,0.24-0.12,0.36-0.2&#xA;		l18.7-10.8c1.26-0.73,2.59-1.39,3.98-1.99c0.16-0.07,0.33-0.15,0.48-0.24l3.5-2.02c4.18-2.41,2.69-8.79-2.13-9.1l-66.53-4.28&#xA;		c-19.81-1.28-34.19-11.57-32.11-23s19.83-19.66,39.65-18.39l157.54,10.13c0.24,0.02,0.46,0.03,0.7,0.06&#xA;		c0.25,0.02,0.51,0.03,0.76,0.06c0.27,0.02,0.54,0.06,0.81,0.08c0.28,0.02,0.56,0.06,0.84,0.09c0.07,0.01,0.15,0.02,0.22,0.02&#xA;		c0.83,0.11,1.67,0.23,2.5,0.35c0.11,0.02,0.24,0.03,0.35,0.06c0.35,0.06,0.69,0.12,1.03,0.19c0.17,0.03,0.34,0.07,0.51,0.1&#xA;		c0.34,0.07,0.68,0.14,1.02,0.21c0.16,0.03,0.33,0.07,0.49,0.11c0.34,0.08,0.68,0.15,1.02,0.24c0.15,0.04,0.29,0.07,0.45,0.11&#xA;		c0.35,0.09,0.69,0.18,1.03,0.28c0.12,0.03,0.24,0.07,0.37,0.11c0.36,0.11,0.73,0.21,1.08,0.32c0.05,0.02,0.1,0.03,0.15,0.05&#xA;		c1.14,0.36,2.26,0.76,3.33,1.19c0.17,0.07,0.34,0.14,0.51,0.2c0.24,0.11,0.49,0.2,0.73,0.32c0.22,0.1,0.43,0.2,0.64,0.29&#xA;		c0.2,0.1,0.42,0.2,0.62,0.29c0.26,0.12,0.52,0.25,0.77,0.38c0.16,0.08,0.32,0.16,0.47,0.24c0.42,0.22,0.82,0.44,1.22,0.67l0,0l0,0&#xA;		c0.4,0.23,0.78,0.46,1.16,0.7c0.15,0.09,0.29,0.19,0.42,0.28c0.22,0.15,0.45,0.29,0.66,0.45c0.17,0.12,0.34,0.24,0.51,0.36&#xA;		c0.17,0.12,0.33,0.24,0.5,0.37c0.19,0.14,0.37,0.29,0.55,0.42c0.12,0.1,0.24,0.2,0.35,0.29c0.76,0.63,1.46,1.28,2.08,1.94&#xA;		c0.02,0.02,0.05,0.05,0.07,0.07c0.2,0.21,0.38,0.42,0.56,0.63c0.06,0.07,0.12,0.14,0.18,0.2c0.17,0.2,0.33,0.4,0.48,0.6&#xA;		c0.07,0.08,0.13,0.17,0.19,0.25c0.15,0.2,0.29,0.39,0.42,0.59c0.07,0.09,0.12,0.19,0.18,0.28c0.13,0.2,0.25,0.39,0.37,0.59&#xA;		c0.06,0.1,0.11,0.19,0.16,0.29c0.11,0.2,0.23,0.4,0.33,0.6c0.04,0.08,0.07,0.16,0.11,0.24c0.22,0.46,0.42,0.91,0.59,1.38&#xA;		c0.02,0.05,0.04,0.1,0.06,0.15c0.06,0.16,0.11,0.33,0.15,0.5c0.05,0.15,0.1,0.3,0.14,0.46c0.04,0.15,0.07,0.29,0.11,0.45&#xA;		c0.03,0.13,0.07,0.27,0.09,0.4l17.55,90.95c2.21,11.44-12.05,21.68-31.85,22.89c-11.29,0.68-21.96-1.72-29.44-6.04&#xA;		c-5.63-3.25-9.46-7.58-10.41-12.49l-7.9-40.97c-0.64-3.29-4.33-4.98-7.24-3.3l-28.07,16.21c-2.89,1.67-5.87,3.27-8.91,4.79&#xA;		l-66.11,38.17c-40.57,23.42-40.36,61.66,0.46,85.23l309.53,178.71c-0.12,0.14-0.25,0.27-0.38,0.41l49.17-28.39&#xA;		c3.25-1.88,3.25-6.58,0-8.46l-66.65-38.48c-3.25-1.88-3.25-6.58,0-8.46l66.65-38.48c3.25-1.88,3.25-6.58,0-8.46l-66.65-38.48&#xA;		c-3.25-1.88-3.25-6.58,0-8.46l66.65-38.48c3.25-1.88,3.25-6.58,0-8.46l-66.65-38.48c-3.25-1.88-3.25-6.58,0-8.46L660.41,320.64z"/>
</g>
</svg>