<?xml version="1.0" encoding="utf-8"?>
<svg xmlns="http://www.w3.org/2000/svg" id="Ebene_1" style="enable-background:new 0 0 273 273;" version="1.1" viewBox="0 0 273 273" x="0px" y="0px">
<style type="text/css">
	.st0{fill:#002147;}
	.st1{fill:#247066;}
	.st2{fill:#00FF91;}
	.st3{fill:#FF00FF;}
	.st4{fill:#0083F9;}
	.st5{fill:none;stroke:#FF00FF;stroke-miterlimit:10;}
</style>
	<g id="upper" fill="#00ff91">
		<path d="M181.5 169.4 c-34.6 -20.1 -64.5 -37.7 -66.4 -39.2 -9.5 -7.7 -9.2 -20.3 0.6 -27.6 4.3 -3.2 45.5 -26.6 46.8 -26.6 1.4 0 1.5 0.6 3.6 12 0.7 3.6 1.9 7.3 2.8 8.4 5.7 6.7 24.2 5.9 27.4 -1.1 1.4 -3.1 -5.6 -40.8 -8.2 -43.7 -0.9 -1 -3 -2.5 -4.8 -3.2 -3.9 -1.7 -72.1 -6.1 -77.5 -5 -4.7 0.9 -9.8 5.1 -9.8 8 0 2.6 3.3 6 7.3 7.5 1.6 0.6 9.7 1.6 18 2.2 13.2 0.9 18.2 1.9 16.6 3.2 -0.2 0.2 -3.2 2 -6.6 4 -15.5 9 -35.6 10.9 -53.1 5.1 -5.9 -2 -33.2 -17.5 -33.2 -18.9 0 -1.3 88 -52.1 89.5 -51.7 3.5 1.1 131.5 75.8 131.2 76.6 -0.2 0.6 -6.6 4.7 -14.3 9.1 -7.6 4.5 -14 8.8 -14.2 9.7 -0.2 1.1 3.9 4 14.3 9.9 8 4.6 14.4 8.8 14.2 9.4 -0.2 0.5 -6.6 4.7 -14.3 9.1 -7.6 4.5 -14 8.8 -14.2 9.7 -0.2 1 4.2 4.1 14 9.7 7.9 4.6 14.5 8.5 14.7 8.7 1 0.8 -2.9 3.4 -15.4 10.6 -8.7 5 -13 8 -13 9.2 0 1.1 4.6 4.4 13.9 9.8 7.7 4.5 14.1 8.7 14.3 9.2 0.3 1 -18.7 12.6 -20.4 12.4 -0.4 0 -29.1 -16.5 -63.8 -36.5z"/>
	</g>
	<g id="lower" fill="#247066">
		<path d="M69.1 232.3 c-36 -20.8 -65.6 -38.3 -65.8 -38.9 -0.2 -0.7 5.6 -4.6 12.9 -8.9 15.2 -8.7 16.7 -10 15.1 -11.6 -0.7 -0.7 -7.2 -4.7 -14.5 -8.9 -7.3 -4.2 -13.3 -8.3 -13.3 -9 0 -0.6 6 -4.7 13.3 -9 7.3 -4.2 13.8 -8.2 14.5 -8.9 1.6 -1.6 0.1 -2.9 -15.1 -11.6 -7.3 -4.3 -13.1 -8.2 -12.9 -8.8 0.2 -0.7 6.3 -4.6 13.6 -8.8 7.3 -4.3 13.8 -8.2 14.4 -8.8 1.7 -1.7 -0.5 -3.4 -14.9 -11.6 -7.3 -4.2 -13.4 -8.2 -13.4 -8.8 0 -0.7 4.3 -3.6 9.5 -6.5 l9.5 -5.3 13.2 7.7 c17.9 10.4 25.6 13.9 34.6 16 4.3 1 7.9 2.1 8.2 2.4 0.3 0.3 2.2 0.6 4.3 0.6 2.1 0.1 4 0.4 4.4 0.7 0.3 0.4 -0.6 2.2 -2.1 4.2 -10.2 13.3 -8.4 29.5 4.5 40.8 4.1 3.6 39.7 24.6 120.7 71.1 7.3 4.2 12.1 7.6 12 8.4 -0.2 1 -81.7 49 -86.3 50.8 -0.6 0.3 -30.5 -16.6 -66.4 -37.3z"/>
	</g>
</svg>