<?xml version="1.0" encoding="UTF-8"?>
<!DOCTYPE svg PUBLIC "-//W3C//DTD SVG 1.1//EN" "http://www.w3.org/Graphics/SVG/1.1/DTD/svg11.dtd">
<svg xmlns="http://www.w3.org/2000/svg" version="1.1" width="439px" height="148px" style="shape-rendering:geometricPrecision; text-rendering:geometricPrecision; image-rendering:optimizeQuality; fill-rule:evenodd; clip-rule:evenodd" xmlns:xlink="http://www.w3.org/1999/xlink">
<g><path style="opacity:0.93" fill="#fefffe" d="M 124.5,-0.5 C 128.167,-0.5 131.833,-0.5 135.5,-0.5C 142.867,3.23715 145.7,9.23715 144,17.5C 139.781,25.6872 133.281,28.1872 124.5,25C 115.181,16.375 115.181,7.87505 124.5,-0.5 Z"/></g>
<g><path style="opacity:0.936" fill="#fefffe" d="M 79.5,2.5 C 97.3648,1.60015 102.865,9.26682 96,25.5C 87.7705,31.5152 80.4372,30.5152 74,22.5C 70.6928,14.2583 72.5261,7.59168 79.5,2.5 Z"/></g>
<g><path style="opacity:0.615" fill="#fefffe" d="M 407.5,8.5 C 411.462,8.90489 412.129,10.4049 409.5,13C 408.207,13.49 406.873,13.6567 405.5,13.5C 405.392,11.4862 406.058,9.81953 407.5,8.5 Z"/></g>
<g><path style="opacity:0.815" fill="#fefffe" d="M 290.5,14.5 C 296.301,14.6294 301.967,14.7961 307.5,15C 308.297,18.7454 308.797,22.5787 309,26.5C 311,29.1667 313,29.1667 315,26.5C 315.499,22.5138 315.666,18.5138 315.5,14.5C 316.833,14.5 318.167,14.5 319.5,14.5C 319.666,19.5111 319.499,24.5111 319,29.5C 315.287,33.9079 310.954,34.5746 306,31.5C 303.947,27.4136 303.113,23.0803 303.5,18.5C 300.167,18.5 296.833,18.5 293.5,18.5C 293.5,19.5 293.5,20.5 293.5,21.5C 296.187,21.3359 298.854,21.5026 301.5,22C 302.833,23.3333 302.833,24.6667 301.5,26C 298.854,26.4974 296.187,26.6641 293.5,26.5C 293.662,28.5273 293.495,30.5273 293,32.5C 292,33.8333 291,33.8333 290,32.5C 289.212,26.418 289.379,20.418 290.5,14.5 Z"/></g>
<g><path style="opacity:0.788" fill="#fefffe" d="M 322.5,14.5 C 323.873,14.3433 325.207,14.51 326.5,15C 328.667,17.8333 330.833,20.6667 333,23.5C 333.333,20.8333 333.667,18.1667 334,15.5C 335.183,14.269 336.349,14.269 337.5,15.5C 338.815,21.0304 338.815,26.5304 337.5,32C 336.167,32.6667 334.833,32.6667 333.5,32C 331.333,29.1667 329.167,26.3333 327,23.5C 326.821,26.5535 326.321,29.5535 325.5,32.5C 324.5,33.8333 323.5,33.8333 322.5,32.5C 321.212,26.4457 321.212,20.4457 322.5,14.5 Z"/></g>
<g><path style="opacity:0.807" fill="#fefffe" d="M 356.5,27.5 C 355.354,29.475 353.687,30.975 351.5,32C 347.833,32.6667 344.167,32.6667 340.5,32C 339.361,26.5838 339.194,21.0838 340,15.5C 351.015,12.0815 356.515,16.0815 356.5,27.5 Z M 344.5,18.5 C 351.367,19.0696 353.034,22.2363 349.5,28C 347.866,28.4935 346.199,28.6602 344.5,28.5C 344.5,25.1667 344.5,21.8333 344.5,18.5 Z"/></g>
<g><path style="opacity:0.791" fill="#fefffe" d="M 356.5,27.5 C 358.997,23.8399 360.997,19.8399 362.5,15.5C 364.167,14.1667 365.833,14.1667 367.5,15.5C 369.274,18.7148 370.774,22.0482 372,25.5C 373.532,15.4833 379.032,12.3166 388.5,16C 389.833,17.3333 389.833,18.6667 388.5,20C 385.97,19.204 383.304,18.8707 380.5,19C 377.136,21.7291 376.803,24.7291 379.5,28C 382.849,28.3876 386.183,28.2209 389.5,27.5C 388.929,31.6738 386.429,33.6738 382,33.5C 379.432,33.0492 377.098,32.0492 375,30.5C 372.486,34.239 370.319,33.9057 368.5,29.5C 366.167,28.1667 363.833,28.1667 361.5,29.5C 357.964,35.009 356.297,34.3423 356.5,27.5 Z M 364.5,20.5 C 367.383,22.9822 367.05,24.1489 363.5,24C 364.337,22.9887 364.67,21.8221 364.5,20.5 Z"/></g>
<g><path style="opacity:0.764" fill="#fefffe" d="M 391.5,14.5 C 392.822,14.33 393.989,14.6634 395,15.5C 395.83,21.1959 395.663,26.8625 394.5,32.5C 393.094,33.6682 391.928,33.3348 391,31.5C 390.215,25.7507 390.382,20.084 391.5,14.5 Z"/></g>
<g><path style="opacity:0.799" fill="#fefffe" d="M 402.5,14.5 C 415.313,14.1242 418.98,19.6242 413.5,31C 405.072,35.303 399.406,32.9697 396.5,24C 397.147,19.8494 399.147,16.6828 402.5,14.5 Z M 404.5,18.5 C 411.238,19.0611 412.905,22.2278 409.5,28C 401.38,28.2606 399.713,25.0939 404.5,18.5 Z"/></g>
<g><path style="opacity:0.845" fill="#fefffe" d="M 417.5,14.5 C 418.873,14.3433 420.207,14.51 421.5,15C 423.788,17.7433 425.955,20.5767 428,23.5C 428.27,20.7759 428.77,18.1092 429.5,15.5C 430.651,14.269 431.817,14.269 433,15.5C 433.499,21.1569 433.666,26.8236 433.5,32.5C 431.712,32.7852 430.045,32.4519 428.5,31.5C 426.573,28.65 424.406,25.9833 422,23.5C 421.667,26.5 421.333,29.5 421,32.5C 420,33.8333 419,33.8333 418,32.5C 417.501,26.5092 417.334,20.5092 417.5,14.5 Z"/></g>
<g><path style="opacity:0.954" fill="#fefffe" d="M 128.5,29.5 C 136.144,29.7603 139.978,33.7603 140,41.5C 140.329,64.883 141.495,88.2163 143.5,111.5C 142.386,120.151 137.719,122.985 129.5,120C 128.333,118.833 127.167,117.667 126,116.5C 124.082,102.905 122.749,89.2384 122,75.5C 117.993,83.5352 113.993,91.5352 110,99.5C 104.339,106.685 98.0053,107.351 91,101.5C 88.1861,93.2373 85.8528,84.904 84,76.5C 79.452,90.8122 74.1187,104.812 68,118.5C 61.9667,122.996 56.6333,122.329 52,116.5C 51.3333,114.167 51.3333,111.833 52,109.5C 61,85.5 70,61.5 79,37.5C 83.686,31.7192 89.0193,31.0526 95,35.5C 96.5621,37.9573 97.5621,40.624 98,43.5C 99.5588,53.1859 101.225,62.8525 103,72.5C 108.652,58.3618 115.486,44.8618 123.5,32C 125.315,31.2432 126.981,30.4098 128.5,29.5 Z"/></g>
<g><path style="opacity:0.967" fill="#fefffe" d="M -0.5,105.5 C -0.5,84.8333 -0.5,64.1667 -0.5,43.5C 14.759,42.3505 30.0923,42.1839 45.5,43C 46,43.5 46.5,44 47,44.5C 47.7769,49.222 47.6103,53.8887 46.5,58.5C 36.8333,59.1667 27.1667,59.8333 17.5,60.5C 16.0465,62.6439 16.3799,64.4773 18.5,66C 26.8267,66.4997 35.16,66.6664 43.5,66.5C 43.5,71.8333 43.5,77.1667 43.5,82.5C 35.16,82.3336 26.8267,82.5003 18.5,83C 15.8333,85 15.8333,87 18.5,89C 27.8333,89.3333 37.1667,89.6667 46.5,90C 47.8333,95 47.8333,100 46.5,105C 30.8369,105.5 15.1702,105.667 -0.5,105.5 Z"/></g>
<g><path style="opacity:0.949" fill="#fefffe" d="M 156.5,42.5 C 167.505,42.3335 178.505,42.5002 189.5,43C 203.072,47.628 208.905,57.128 207,71.5C 205.363,79.138 200.863,84.3046 193.5,87C 187.23,88.1518 180.897,88.8185 174.5,89C 173.833,94.3333 173.167,99.6667 172.5,105C 166.916,105.806 161.416,105.639 156,104.5C 155.179,83.7603 155.346,63.0937 156.5,42.5 Z M 175.5,58.5 C 179.247,58.3924 182.914,58.8924 186.5,60C 189.981,63.3969 190.314,67.0636 187.5,71C 182.845,71.4992 178.179,71.6658 173.5,71.5C 172.999,66.8468 173.666,62.5135 175.5,58.5 Z"/></g>
<g><path style="opacity:0.952" fill="#fefffe" d="M 213.5,42.5 C 218.833,42.5 224.167,42.5 229.5,42.5C 229.333,55.1711 229.5,67.8377 230,80.5C 232.067,89.2116 237.234,91.7116 245.5,88C 247.041,86.4207 248.208,84.5873 249,82.5C 249.333,69.5 249.667,56.5 250,43.5C 252.746,42.8568 255.579,42.5235 258.5,42.5C 261.613,42.5623 264.446,43.2289 267,44.5C 267.667,57.1667 267.667,69.8333 267,82.5C 264.624,97.8726 255.624,105.873 240,106.5C 227.726,106.871 219.06,101.538 214,90.5C 212.197,74.4934 212.03,58.4934 213.5,42.5 Z"/></g>
<g><path style="opacity:0.933" fill="#fefffe" d="M 298.5,42.5 C 304.093,42.1934 309.593,42.5268 315,43.5C 315.667,58.1667 315.667,72.8333 315,87.5C 310.906,101.806 301.406,107.973 286.5,106C 278.36,103.948 272.693,99.1149 269.5,91.5C 269.529,89.9707 270.196,88.804 271.5,88C 274.72,86.2229 278.053,84.7229 281.5,83.5C 284.13,84.8855 286.463,86.7188 288.5,89C 292.475,90.3794 295.309,89.2127 297,85.5C 297.184,71.0922 297.684,56.7588 298.5,42.5 Z"/></g>
<g><path style="opacity:0.952" fill="#fefffe" d="M 340.5,42.5 C 345.511,42.3341 350.511,42.5007 355.5,43C 363.903,59.862 371.736,77.0287 379,94.5C 380.904,97.6221 381.571,100.955 381,104.5C 375.25,105.641 369.416,105.807 363.5,105C 361.5,102.333 359.5,99.6667 357.5,97C 351.167,96.3333 344.833,96.3333 338.5,97C 336.5,99.6667 334.5,102.333 332.5,105C 326.509,105.499 320.509,105.666 314.5,105.5C 314.338,103.473 314.505,101.473 315,99.5C 322.982,80.2071 331.482,61.2071 340.5,42.5 Z M 347.5,69.5 C 349.263,72.8637 350.93,76.3637 352.5,80C 349.5,82 346.5,82 343.5,80C 345.254,76.6594 346.587,73.1594 347.5,69.5 Z"/></g>
<g><path style="opacity:0.945" fill="#fefffe" d="M 438.5,101.5 C 438.5,102.5 438.5,103.5 438.5,104.5C 432.248,105.624 425.915,105.79 419.5,105C 414.515,100.553 410.349,95.386 407,89.5C 405.267,87.3985 403.267,87.0652 401,88.5C 400.809,94.0829 400.309,99.5829 399.5,105C 394.5,105.667 389.5,105.667 384.5,105C 384,104.5 383.5,104 383,103.5C 382.179,83.4566 382.346,63.4566 383.5,43.5C 396.21,42.0801 408.877,42.2467 421.5,44C 433.977,51.7679 437.477,62.6012 432,76.5C 429.872,79.6301 427.372,82.4634 424.5,85C 429.066,90.6641 433.733,96.1641 438.5,101.5 Z M 402.5,58.5 C 407.715,57.7024 412.215,59.0358 416,62.5C 417.056,67.124 415.223,69.9573 410.5,71C 407.833,71.6667 405.167,71.6667 402.5,71C 399.87,66.8344 399.87,62.6678 402.5,58.5 Z"/></g>
<g><path style="opacity:0.714" fill="#fefffe" d="M 129.5,125.5 C 130.5,125.5 131.5,125.5 132.5,125.5C 132.168,130.675 132.168,136.008 132.5,141.5C 131.5,141.5 130.5,141.5 129.5,141.5C 129.832,136.008 129.832,130.675 129.5,125.5 Z"/></g>
<g><path style="opacity:0.735" fill="#fefffe" d="M 143.5,125.5 C 144.496,125.414 145.329,125.748 146,126.5C 146.499,131.489 146.666,136.489 146.5,141.5C 145.178,141.67 144.011,141.337 143,140.5C 140.146,143.016 137.479,142.683 135,139.5C 133.202,132.482 135.702,129.482 142.5,130.5C 143.452,128.955 143.785,127.288 143.5,125.5 Z M 139.5,132.5 C 144.335,134.501 144.502,136.834 140,139.5C 136.879,137.326 136.712,134.993 139.5,132.5 Z"/></g>
<g><path style="opacity:0.696" fill="#fefffe" d="M 227.5,125.5 C 228.995,125.415 229.995,126.081 230.5,127.5C 229.711,133.115 229.211,138.782 229,144.5C 227.644,145.38 226.144,145.714 224.5,145.5C 226.271,138.787 227.271,132.12 227.5,125.5 Z"/></g>
<g><path style="opacity:0.686" fill="#fefffe" d="M 243.5,132.5 C 244.931,138.028 242.931,141.362 237.5,142.5C 231.909,141.349 230.075,138.016 232,132.5C 234.657,131.255 236.49,129.255 237.5,126.5C 241.671,125.247 242.338,126.247 239.5,129.5C 240.852,130.524 242.185,131.524 243.5,132.5 Z M 236.5,132.5 C 241.289,134.2 241.622,136.533 237.5,139.5C 233.967,137.58 233.633,135.246 236.5,132.5 Z"/></g>
<g><path style="opacity:0.752" fill="#fefffe" d="M 317.5,125.5 C 319.446,130.396 320.113,135.729 319.5,141.5C 309.835,144.283 306.335,140.949 309,131.5C 310.972,129.558 313.139,129.224 315.5,130.5C 316.322,128.861 316.989,127.195 317.5,125.5 Z M 312.5,132.5 C 317.038,133.948 317.538,136.282 314,139.5C 310.282,137.683 309.782,135.35 312.5,132.5 Z"/></g>
<g><path style="opacity:0.702" fill="#fefffe" d="M 409.5,125.5 C 410.995,125.415 411.995,126.081 412.5,127.5C 412.296,132.046 412.296,136.712 412.5,141.5C 411.5,141.5 410.5,141.5 409.5,141.5C 409.323,136.016 409.323,130.683 409.5,125.5 Z"/></g>
<g><path style="opacity:0.782" fill="#fefffe" d="M 1.5,126.5 C 5.16667,126.5 8.83333,126.5 12.5,126.5C 12.5,127.5 12.5,128.5 12.5,129.5C 9.83333,129.5 7.16667,129.5 4.5,129.5C 4.5,130.5 4.5,131.5 4.5,132.5C 6.83333,132.5 9.16667,132.5 11.5,132.5C 11.5,133.5 11.5,134.5 11.5,135.5C 9.16667,135.5 6.83333,135.5 4.5,135.5C 4.5,136.5 4.5,137.5 4.5,138.5C 7.16667,138.5 9.83333,138.5 12.5,138.5C 12.5,139.5 12.5,140.5 12.5,141.5C 8.83333,141.5 5.16667,141.5 1.5,141.5C 1.5,136.5 1.5,131.5 1.5,126.5 Z"/></g>
<g><path style="opacity:0.739" fill="#fefffe" d="M 344.5,126.5 C 345.978,126.238 347.311,126.571 348.5,127.5C 350.755,131.999 352.421,136.666 353.5,141.5C 351.318,139.912 348.818,138.912 346,138.5C 343.546,138.759 341.546,139.759 340,141.5C 339.5,141.167 339,140.833 338.5,140.5C 340.512,135.812 342.512,131.145 344.5,126.5 Z M 345.5,131.5 C 349.512,134.583 349.179,135.75 344.5,135C 345.337,133.989 345.67,132.822 345.5,131.5 Z"/></g>
<g><path style="opacity:0.744" fill="#fefffe" d="M 402.5,126.5 C 404.176,127.183 404.843,128.517 404.5,130.5C 408.5,131.167 408.5,131.833 404.5,132.5C 404.499,135.965 405.332,138.965 407,141.5C 405.062,142.86 403.396,142.527 402,140.5C 400.65,130.132 399.816,130.465 399.5,141.5C 398.5,141.5 397.5,141.5 396.5,141.5C 397.084,138.017 396.251,135.017 394,132.5C 392.784,134.962 392.118,137.629 392,140.5C 390.989,141.337 389.822,141.67 388.5,141.5C 388.335,137.818 388.501,134.152 389,130.5C 390.946,130.412 392.946,130.079 395,129.5C 398.856,132.33 401.356,131.33 402.5,126.5 Z"/></g>
<g><path style="opacity:0.782" fill="#fefffe" d="M 15.5,129.5 C 17.0806,130.579 18.7473,130.579 20.5,129.5C 22.0293,129.529 23.196,130.196 24,131.5C 26.3333,128.833 28.6667,128.833 31,131.5C 31.4983,134.817 31.665,138.15 31.5,141.5C 30.5,141.5 29.5,141.5 28.5,141.5C 28.8919,138.278 28.3919,135.278 27,132.5C 24.7492,135.017 23.9159,138.017 24.5,141.5C 23.5,141.5 22.5,141.5 21.5,141.5C 21.5,138.833 21.5,136.167 21.5,133.5C 20.1667,133.5 18.8333,133.5 17.5,133.5C 17.5,136.167 17.5,138.833 17.5,141.5C 16.5,141.5 15.5,141.5 14.5,141.5C 14.2367,137.4 14.5701,133.4 15.5,129.5 Z"/></g>
<g><path style="opacity:0.715" fill="#fefffe" d="M 34.5,129.5 C 35.7498,129.577 36.5831,130.244 37,131.5C 42.1252,128.314 44.9585,129.814 45.5,136C 45.1214,140.927 42.6214,142.76 38,141.5C 37.8905,144.646 36.5572,145.646 34,144.5C 33.2223,139.416 33.3889,134.416 34.5,129.5 Z M 38.5,132.5 C 43.0375,133.948 43.5375,136.282 40,139.5C 36.2816,137.683 35.7816,135.35 38.5,132.5 Z"/></g>
<g><path style="opacity:0.807" fill="#fefffe" d="M 54.5,132.5 C 50.8263,134.221 49.4929,137.221 50.5,141.5C 49.5,141.5 48.5,141.5 47.5,141.5C 47.3347,137.818 47.5014,134.152 48,130.5C 49.3988,130.499 50.8988,130.165 52.5,129.5C 53.9185,130.005 54.5852,131.005 54.5,132.5 Z"/></g>
<g><path style="opacity:0.658" fill="#fefffe" d="M 54.5,132.5 C 61.2401,127.434 64.9068,129.101 65.5,137.5C 63.1432,137.337 60.8098,137.503 58.5,138C 59.0253,138.692 59.6919,139.192 60.5,139.5C 62.198,138.319 63.8647,138.319 65.5,139.5C 62.088,143.452 58.588,143.452 55,139.5C 54.5034,137.19 54.3367,134.857 54.5,132.5 Z M 59.5,132.5 C 60.7562,132.461 61.7562,132.961 62.5,134C 61.1667,134.667 59.8333,134.667 58.5,134C 59.056,133.617 59.3893,133.117 59.5,132.5 Z"/></g>
<g><path style="opacity:0.681" fill="#fefffe" d="M 69.5,129.5 C 71.5,129.833 73.5,130.167 75.5,130.5C 75.5,131.5 75.5,132.5 75.5,133.5C 73.6693,132.948 72.0026,132.948 70.5,133.5C 76.8378,136.441 77.0044,139.441 71,142.5C 69.5603,141.852 68.0603,141.519 66.5,141.5C 66.5,140.5 66.5,139.5 66.5,138.5C 74.1773,139.965 74.3439,138.965 67,135.5C 66.0339,132.66 66.8672,130.66 69.5,129.5 Z"/></g>
<g><path style="opacity:0.689" fill="#fefffe" d="M 79.5,129.5 C 85.5818,129.345 88.2485,132.345 87.5,138.5C 89.674,138.92 91.674,138.92 93.5,138.5C 89.1958,137.403 87.8624,134.903 89.5,131C 92.6554,128.885 95.322,129.385 97.5,132.5C 95.5868,133.051 93.5868,133.218 91.5,133C 92.6226,134.044 93.9559,134.71 95.5,135C 98.6028,138.747 97.7695,141.247 93,142.5C 89.0507,140.12 85.0507,140.12 81,142.5C 76.9157,141.775 75.5823,139.442 77,135.5C 79.0693,134.736 81.236,134.236 83.5,134C 82.9747,133.308 82.3081,132.808 81.5,132.5C 80.2638,133.246 78.9305,133.579 77.5,133.5C 77.5271,131.801 78.1938,130.467 79.5,129.5 Z M 80.5,136.5 C 82.3547,136.272 83.1881,136.939 83,138.5C 80.3655,139.692 79.5322,139.026 80.5,136.5 Z"/></g>
<g><path style="opacity:0.682" fill="#fefffe" d="M 105.5,129.5 C 106.117,129.611 106.617,129.944 107,130.5C 107.333,132.833 107.667,135.167 108,137.5C 109.011,138.337 110.178,138.67 111.5,138.5C 111.336,135.813 111.503,133.146 112,130.5C 112.718,129.549 113.551,129.383 114.5,130C 115.46,133.73 115.793,137.563 115.5,141.5C 104.762,144.061 101.428,140.061 105.5,129.5 Z"/></g>
<g><path style="opacity:0.709" fill="#fefffe" d="M 117.5,129.5 C 119.341,130.673 121.174,130.673 123,129.5C 124.473,129.903 125.806,130.57 127,131.5C 127.498,134.817 127.665,138.15 127.5,141.5C 126.5,141.5 125.5,141.5 124.5,141.5C 125.084,138.017 124.251,135.017 122,132.5C 120.784,134.962 120.118,137.629 120,140.5C 118.989,141.337 117.822,141.67 116.5,141.5C 116.237,137.4 116.57,133.4 117.5,129.5 Z"/></g>
<g><path style="opacity:0.705" fill="#fefffe" d="M 151.5,129.5 C 154.099,129.549 156.266,130.549 158,132.5C 158.498,135.482 158.665,138.482 158.5,141.5C 156.266,141.38 154.099,141.713 152,142.5C 147.742,141.702 146.575,139.369 148.5,135.5C 150.444,134.811 152.444,134.311 154.5,134C 153.975,133.308 153.308,132.808 152.5,132.5C 151.264,133.246 149.93,133.579 148.5,133.5C 148.5,132.5 148.5,131.5 148.5,130.5C 149.791,130.737 150.791,130.404 151.5,129.5 Z M 151.5,136.5 C 152.5,136.5 153.5,136.5 154.5,136.5C 154.5,137.5 154.5,138.5 154.5,139.5C 151.506,139.854 150.506,138.854 151.5,136.5 Z"/></g>
<g><path style="opacity:0.681" fill="#fefffe" d="M 162.5,129.5 C 164.5,129.833 166.5,130.167 168.5,130.5C 168.5,131.5 168.5,132.5 168.5,133.5C 166.669,132.948 165.003,132.948 163.5,133.5C 169.838,136.441 170.004,139.441 164,142.5C 162.56,141.852 161.06,141.519 159.5,141.5C 159.5,140.5 159.5,139.5 159.5,138.5C 167.177,139.965 167.344,138.965 160,135.5C 159.034,132.66 159.867,130.66 162.5,129.5 Z"/></g>
<g><path style="opacity:0.715" fill="#fefffe" d="M 176.5,129.5 C 177.75,129.577 178.583,130.244 179,131.5C 184.125,128.314 186.959,129.814 187.5,136C 187.121,140.927 184.621,142.76 180,141.5C 179.89,144.646 178.557,145.646 176,144.5C 175.222,139.416 175.389,134.416 176.5,129.5 Z M 180.5,132.5 C 185.038,133.948 185.538,136.282 182,139.5C 178.282,137.683 177.782,135.35 180.5,132.5 Z"/></g>
<g><path style="opacity:0.705" fill="#fefffe" d="M 192.5,129.5 C 195.099,129.549 197.266,130.549 199,132.5C 199.498,135.482 199.665,138.482 199.5,141.5C 197.266,141.38 195.099,141.713 193,142.5C 188.742,141.702 187.575,139.369 189.5,135.5C 191.444,134.811 193.444,134.311 195.5,134C 194.975,133.308 194.308,132.808 193.5,132.5C 192.264,133.246 190.93,133.579 189.5,133.5C 189.5,132.5 189.5,131.5 189.5,130.5C 190.791,130.737 191.791,130.404 192.5,129.5 Z M 192.5,136.5 C 193.5,136.5 194.5,136.5 195.5,136.5C 195.5,137.5 195.5,138.5 195.5,139.5C 192.506,139.854 191.506,138.854 192.5,136.5 Z"/></g>
<g><path style="opacity:0.66" fill="#fefffe" d="M 201.5,129.5 C 203.205,130.535 204.872,130.535 206.5,129.5C 209.088,131.72 208.588,133.387 205,134.5C 204.503,136.81 204.337,139.143 204.5,141.5C 203.178,141.67 202.011,141.337 201,140.5C 200.245,136.745 200.411,133.078 201.5,129.5 Z"/></g>
<g><path style="opacity:0.705" fill="#fefffe" d="M 212.5,129.5 C 215.099,129.549 217.266,130.549 219,132.5C 219.498,135.482 219.665,138.482 219.5,141.5C 217.266,141.38 215.099,141.713 213,142.5C 208.742,141.702 207.575,139.369 209.5,135.5C 211.444,134.811 213.444,134.311 215.5,134C 214.975,133.308 214.308,132.808 213.5,132.5C 212.264,133.246 210.93,133.579 209.5,133.5C 209.5,132.5 209.5,131.5 209.5,130.5C 210.791,130.737 211.791,130.404 212.5,129.5 Z M 212.5,136.5 C 213.5,136.5 214.5,136.5 215.5,136.5C 215.5,137.5 215.5,138.5 215.5,139.5C 212.506,139.854 211.506,138.854 212.5,136.5 Z"/></g>
<g><path style="opacity:0.661" fill="#fefffe" d="M 255.5,132.5 C 254.028,136.104 252.028,139.438 249.5,142.5C 246.972,139.438 244.972,136.104 243.5,132.5C 243.511,130.314 244.511,129.481 246.5,130C 247.525,132.071 248.358,134.238 249,136.5C 250.544,134.532 251.711,132.365 252.5,130C 254.489,129.481 255.489,130.314 255.5,132.5 Z"/></g>
<g><path style="opacity:0.658" fill="#fefffe" d="M 255.5,132.5 C 262.24,127.434 265.907,129.101 266.5,137.5C 264.143,137.337 261.81,137.503 259.5,138C 260.025,138.692 260.692,139.192 261.5,139.5C 263.198,138.319 264.865,138.319 266.5,139.5C 263.088,143.452 259.588,143.452 256,139.5C 255.503,137.19 255.337,134.857 255.5,132.5 Z M 260.5,132.5 C 261.756,132.461 262.756,132.961 263.5,134C 262.167,134.667 260.833,134.667 259.5,134C 260.056,133.617 260.389,133.117 260.5,132.5 Z"/></g>
<g><path style="opacity:0.709" fill="#fefffe" d="M 268.5,129.5 C 270.482,130.817 272.482,130.817 274.5,129.5C 276.029,129.529 277.196,130.196 278,131.5C 278.498,134.817 278.665,138.15 278.5,141.5C 277.5,141.5 276.5,141.5 275.5,141.5C 276.045,138.002 275.212,135.002 273,132.5C 271.608,135.278 271.108,138.278 271.5,141.5C 270.178,141.67 269.011,141.337 268,140.5C 267.245,136.745 267.411,133.078 268.5,129.5 Z"/></g>
<g><path style="opacity:0.678" fill="#fefffe" d="M 283.5,129.5 C 289.31,129.133 291.643,131.633 290.5,137C 288.167,137.333 285.833,137.667 283.5,138C 285.728,139.081 288.061,139.581 290.5,139.5C 285.455,143.673 281.789,142.506 279.5,136C 279.836,133.08 281.17,130.913 283.5,129.5 Z M 284.5,132.5 C 285.756,132.461 286.756,132.961 287.5,134C 286.167,134.667 284.833,134.667 283.5,134C 284.056,133.617 284.389,133.117 284.5,132.5 Z"/></g>
<g><path style="opacity:0.668" fill="#fefffe" d="M 294.5,129.5 C 297.969,128.887 299.969,130.221 300.5,133.5C 298.774,133.185 297.107,133.019 295.5,133C 297.249,134.292 299.082,135.458 301,136.5C 300.692,142.242 297.859,143.742 292.5,141C 292.043,140.586 291.709,140.086 291.5,139.5C 293.576,138.9 295.576,138.567 297.5,138.5C 292.461,136.718 291.461,133.718 294.5,129.5 Z"/></g>
<g><path style="opacity:0.69" fill="#fefffe" d="M 325.5,129.5 C 330.697,129.695 333.03,132.362 332.5,137.5C 329.813,137.336 327.146,137.503 324.5,138C 326.699,139.583 329.032,139.75 331.5,138.5C 331.5,139.5 331.5,140.5 331.5,141.5C 323.653,143.487 320.487,140.487 322,132.5C 323.145,131.364 324.312,130.364 325.5,129.5 Z M 325.5,132.5 C 326.756,132.461 327.756,132.961 328.5,134C 327.167,134.667 325.833,134.667 324.5,134C 325.056,133.617 325.389,133.117 325.5,132.5 Z"/></g>
<g><path style="opacity:0.807" fill="#fefffe" d="M 362.5,132.5 C 358.826,134.221 357.493,137.221 358.5,141.5C 357.5,141.5 356.5,141.5 355.5,141.5C 355.335,137.818 355.501,134.152 356,130.5C 357.399,130.499 358.899,130.165 360.5,129.5C 361.919,130.005 362.585,131.005 362.5,132.5 Z"/></g>
<g><path style="opacity:0.72" fill="#fefffe" d="M 362.5,132.5 C 364.082,131.124 365.915,130.124 368,129.5C 369.73,130.649 371.396,130.649 373,129.5C 374.595,133.646 374.928,137.98 374,142.5C 370.888,145.723 367.388,146.223 363.5,144C 362.167,143.333 362.167,142.667 363.5,142C 365.035,141.504 366.535,141.67 368,142.5C 369.059,142.37 369.892,141.87 370.5,141C 364.2,141.535 361.534,138.701 362.5,132.5 Z M 367.5,132.5 C 370.487,132.948 371.487,134.448 370.5,137C 365.522,137.864 364.522,136.364 367.5,132.5 Z"/></g>
<g><path style="opacity:0.678" fill="#fefffe" d="M 379.5,129.5 C 385.31,129.133 387.643,131.633 386.5,137C 384.167,137.333 381.833,137.667 379.5,138C 381.728,139.081 384.061,139.581 386.5,139.5C 381.455,143.673 377.789,142.506 375.5,136C 375.836,133.08 377.17,130.913 379.5,129.5 Z M 380.5,132.5 C 381.756,132.461 382.756,132.961 383.5,134C 382.167,134.667 380.833,134.667 379.5,134C 380.056,133.617 380.389,133.117 380.5,132.5 Z"/></g>
<g><path style="opacity:0.721" fill="#fefffe" d="M 415.5,129.5 C 417.28,130.755 419.113,130.755 421,129.5C 422.395,129.78 423.562,130.447 424.5,131.5C 425.417,134.758 425.751,138.091 425.5,141.5C 424.167,141.5 422.833,141.5 421.5,141.5C 421.892,138.278 421.392,135.278 420,132.5C 417.749,135.017 416.916,138.017 417.5,141.5C 416.5,141.5 415.5,141.5 414.5,141.5C 414.237,137.4 414.57,133.4 415.5,129.5 Z"/></g>
<g><path style="opacity:0.706" fill="#fefffe" d="M 429.5,129.5 C 436.214,130.024 438.714,133.691 437,140.5C 433.863,142.45 430.696,142.617 427.5,141C 425.364,135.456 427.364,133.123 433.5,134C 432.975,133.308 432.308,132.808 431.5,132.5C 430.264,133.246 428.93,133.579 427.5,133.5C 427.527,131.801 428.194,130.467 429.5,129.5 Z M 430.5,136.5 C 432.355,136.272 433.188,136.939 433,138.5C 430.366,139.692 429.532,139.026 430.5,136.5 Z"/></g>
</svg>
