<?xml version="1.0" encoding="UTF-8"?>
<svg version="1.1" xmlns="http://www.w3.org/2000/svg" width="512" height="512">
<path d="M0 0 C4.44287878 4.00618557 7.37498544 8.34128456 8.39746094 14.32666016 C8.73555464 24.39159569 5.79459152 33.77943198 3.09277344 43.37451172 C2.24751308 46.38385407 1.43080787 49.39993652 0.6171875 52.41796875 C0.08500164 54.34941879 -0.44879639 56.2804255 -0.984375 58.2109375 C-1.22621521 59.10477142 -1.46805542 59.99860535 -1.71722412 60.91952515 C-3.6665936 67.75786353 -6.07219762 73.01715882 -12 77.3125 C-12.66 77.80363281 -13.32 78.29476562 -14 78.80078125 C-19.12329431 81.87275655 -25.38497643 81.66697852 -31.1171875 80.609375 C-37.71755441 78.6061508 -41.49243206 73.80259481 -45.1875 68.19921875 C-46.36434388 65.01381922 -46.18758758 62.12972909 -46.125 58.75 C-46.10695313 57.48671875 -46.08890625 56.2234375 -46.0703125 54.921875 C-46.03550781 53.47554687 -46.03550781 53.47554687 -46 52 C-47.5562216 52.78426187 -49.09434349 53.60444358 -50.625 54.4375 C-51.48351562 54.88996094 -52.34203125 55.34242187 -53.2265625 55.80859375 C-60.39761947 61.47473877 -63.16103427 69.30119562 -65.4375 77.875 C-65.72262451 78.90729736 -66.00774902 79.93959473 -66.30151367 81.00317383 C-66.90436972 83.20102132 -67.49933315 85.40104695 -68.08691406 87.60302734 C-69.00573638 91.02134116 -69.96498108 94.42641358 -70.9296875 97.83203125 C-79.50470693 128.66126778 -80.80391045 157.39298739 -65.2265625 186.21484375 C-52.48865501 208.53170304 -31.35589581 225.49273825 -6.52734375 232.28125 C0.53265105 234.07409385 7.70463183 235.69492097 15 236 C15.89460938 236.03996094 16.78921875 236.07992187 17.7109375 236.12109375 C42.76178139 236.67997084 65.78098178 227.73538665 85 212 C85.66386719 211.48824219 86.32773437 210.97648438 87.01171875 210.44921875 C106.18565855 195.15315442 113.91556458 170.78675986 120.00683594 148.09521484 C120.87654894 144.86925464 121.77327719 141.6516115 122.671875 138.43359375 C123.23862668 136.34940564 123.80378605 134.26478374 124.3671875 132.1796875 C124.6327243 131.23560028 124.89826111 130.29151306 125.17184448 129.31881714 C127.71411248 119.66381022 128.55644154 110.11288307 124 101 C121.98082178 98.55789478 121.98082178 98.55789478 120 97 C119.95875 97.845625 119.9175 98.69125 119.875 99.5625 C118.52723481 104.85729181 115.55401407 108.06031449 111.24609375 111.33203125 C105.50909893 114.72152924 99.49662546 114.85689003 93 114 C87.11378966 112.27389549 83.43453162 109.1027327 80 104 C75.41966579 95.09789882 76.91926801 87.07590204 79.51953125 77.8046875 C79.90838753 76.37807297 79.90838753 76.37807297 80.30509949 74.92263794 C80.85259059 72.92283661 81.40503116 70.92438438 81.9621582 68.92724609 C82.81094168 65.88059349 83.64197839 62.82950627 84.47070312 59.77734375 C85.00676874 57.82783769 85.54384407 55.87860894 86.08203125 53.9296875 C86.32903275 53.02330536 86.57603424 52.11692322 86.83052063 51.18307495 C89.30419059 42.37517624 92.3043763 36.25959893 100 31 C106.54760943 27.9581972 113.46129309 28.79683965 120.125 31.0625 C125.06257193 34.38999413 128.81669324 38.58193835 131.4375 43.9375 C132.78564207 51.27738462 131.89664459 57.83677981 130 65 C130.85271484 65.63615234 130.85271484 65.63615234 131.72265625 66.28515625 C145.75782053 76.94625767 154.24820715 88.99087277 157.6875 106.5 C159.1496166 122.87570592 154.29175415 138.37951542 150.03125 154.05151367 C149.25302782 156.92631505 148.49351829 159.80565734 147.734375 162.68554688 C143.90081587 176.98110906 139.00833249 190.42709681 131.625 203.3125 C131.25052734 203.97072754 130.87605469 204.62895508 130.49023438 205.30712891 C126.92809829 211.40111714 122.68833991 216.72869663 118 222 C117.31550781 222.82757813 116.63101562 223.65515625 115.92578125 224.5078125 C99.50244316 243.87581564 75.39707639 256.79587241 51 263 C50.35353516 263.16516113 49.70707031 263.33032227 49.04101562 263.50048828 C33.6757243 267.19656707 17.68490777 266.29168005 2 266 C-3.51065668 289.77168671 -1.03638646 314.13217274 0.71157837 338.22927856 C3.91989467 382.8041778 4.99497677 430.3336084 -25.6875 466.40625 C-32.46818264 474.01161026 -39.50663424 480.34162911 -48 486 C-48.89074219 486.59683594 -49.78148437 487.19367188 -50.69921875 487.80859375 C-77.65544488 504.68913145 -111.4142945 507.4847823 -142 501 C-158.57697173 497.13303915 -173.95827093 489.94977542 -187 479 C-187.87140625 478.30261719 -188.7428125 477.60523438 -189.640625 476.88671875 C-210.3915851 459.47755437 -216.2637141 433.727369 -219 408 C-219.78371605 398.73593129 -220.19513832 389.44439847 -220.65673828 380.15991211 C-222.39743779 345.85961456 -227.92272562 317.5642775 -251.65234375 291.63671875 C-254.96057467 287.92115158 -258.05645591 284.04540905 -261.15234375 280.15234375 C-262.81988842 277.92865221 -262.81988842 277.92865221 -265 277 C-267.4923071 277.7405085 -267.4923071 277.7405085 -270.25 278.875 C-283.91057556 284.27130471 -300.13869506 283.38629622 -313.640625 277.93359375 C-328.69454079 270.9376789 -338.88324346 259.29189135 -345 244 C-350.08186826 227.11450158 -348.4533846 211.47712781 -340.46240234 195.7734375 C-334.8715678 185.58381128 -326.38846136 178.13605529 -316 173 C-315.24589844 172.61199219 -314.49179687 172.22398437 -313.71484375 171.82421875 C-300.68273686 165.84119806 -285.22097239 165.7589078 -271.7109375 170.04296875 C-265.25227192 172.5692063 -259.53383693 175.83624262 -254 180 C-253.38511719 180.44988281 -252.77023438 180.89976562 -252.13671875 181.36328125 C-242.06720069 189.28939857 -235.6288957 201.98950171 -233.28125 214.47265625 C-231.76525068 228.09559462 -233.0641175 241.01406633 -240.20703125 252.87890625 C-241.21509551 254.9403928 -241.21509551 254.9403928 -240.4765625 256.875 C-238.37090608 259.90536268 -235.99366175 262.66874055 -233.5625 265.4375 C-232.4726294 266.69919556 -231.38278624 267.96091482 -230.29296875 269.22265625 C-228.24732894 271.57684624 -226.18692453 273.91656936 -224.11328125 276.24609375 C-196.85705443 307.15770272 -191.63091562 344.61087842 -189.89550781 384.39550781 C-189.50442202 393.18955623 -188.99814609 401.94179783 -188.046875 410.6953125 C-187.97009521 411.41444824 -187.89331543 412.13358398 -187.81420898 412.87451172 C-185.94350011 429.0759499 -180.73452414 445.13486336 -167.82421875 455.796875 C-146.79345951 471.35481801 -121.32020256 476.08311328 -95.63671875 472.50390625 C-74.85630268 468.33840948 -56.6184738 457.86864237 -44.125 440.6875 C-24.71060778 410.88131737 -27.65667337 375.09208823 -29.68847656 341.23339844 C-30.17282068 333.1395631 -30.62556497 325.04427121 -31.04721069 316.94692993 C-31.18263859 314.40379027 -31.32991598 311.86153325 -31.4777832 309.3190918 C-31.92385424 301.13501285 -32.06057247 293.04486747 -31.6484375 284.85546875 C-31.61086838 284.09913651 -31.57329926 283.34280426 -31.53459167 282.56355286 C-31.13196374 275.96509811 -29.98244483 269.5865324 -28.62109375 263.125 C-27.90253144 260.0406127 -27.90253144 260.0406127 -28 257 C-29.06476563 256.53851563 -30.12953125 256.07703125 -31.2265625 255.6015625 C-45.71057415 249.15918957 -57.54625512 240.97966604 -69 230 C-69.81984375 229.24332031 -70.6396875 228.48664063 -71.484375 227.70703125 C-94.16819763 206.11513176 -107.21508202 174.34532788 -108.203125 143.1953125 C-108.22405437 141.5052657 -108.23963101 139.81514459 -108.25 138.125 C-108.2809375 136.92230469 -108.2809375 136.92230469 -108.3125 135.6953125 C-108.41466394 118.9404267 -103.87278544 102.62443371 -99.43920898 86.6081543 C-98.5557937 83.41324637 -97.6899308 80.21394378 -96.82617188 77.01367188 C-96.26143261 74.94503488 -95.69571259 72.87666532 -95.12890625 70.80859375 C-94.74745201 69.40050697 -94.74745201 69.40050697 -94.35829163 67.963974 C-89.56708042 50.75600232 -81.57997784 36.96309305 -65.75 27.75 C-56.54104836 23.03604713 -47.39427774 20.15531829 -37 21 C-36.74476563 19.80503906 -36.74476563 19.80503906 -36.484375 18.5859375 C-34.38511842 9.40727308 -31.84952167 3.6516556 -24 -2 C-15.87794693 -5.79029143 -7.44716969 -4.78746623 0 0 Z " fill="#30363C" transform="translate(351,6)"/>
<path d="M0 0 C0.63292969 0.47179687 1.26585938 0.94359375 1.91796875 1.4296875 C11.97946049 9.29231018 18.38193721 22.04710363 20.71875 34.47265625 C22.31594333 48.82521297 21.04970894 64.90543023 11.72753906 76.59570312 C6.14391491 83.19901152 0.25174451 89.23127912 -7 94 C-8.4540625 95.0828125 -8.4540625 95.0828125 -9.9375 96.1875 C-21.92430706 103.28173275 -38.06485323 103.88248506 -51.4375 100.8125 C-65.80928103 96.59128016 -78.11357633 87.6494881 -85.94921875 74.8046875 C-93.69411164 60.28910208 -95.91738469 45.78739134 -92.15625 29.78515625 C-87.44580116 14.36480178 -78.87812304 2.07727389 -64.453125 -5.79296875 C-43.05620244 -16.32107237 -18.81087786 -15.33757134 0 0 Z " fill="#98A9B4" transform="translate(97,186)"/>
<path d="M0 0 C5.73083122 5.46484327 8.98507953 10.25334035 9.25 18.3125 C9.15366291 23.03301761 8.20485431 27.44952346 7 32 C7.56847656 32.42410156 8.13695312 32.84820312 8.72265625 33.28515625 C22.75782053 43.94625767 31.24820715 55.99087277 34.6875 73.5 C36.1496166 89.87570592 31.29175415 105.37951542 27.03125 121.05151367 C26.25302782 123.92631505 25.49351829 126.80565734 24.734375 129.68554688 C20.90081587 143.98110906 16.00833249 157.42709681 8.625 170.3125 C8.25052734 170.97072754 7.87605469 171.62895508 7.49023438 172.30712891 C3.92809829 178.40111714 -0.31166009 183.72869663 -5 189 C-5.68449219 189.82757813 -6.36898437 190.65515625 -7.07421875 191.5078125 C-18.40146848 204.86601089 -33.83570907 215.42469521 -50 222 C-54.40059993 213.4796895 -58.31021071 204.8450268 -62 196 C-59.50183569 193.18003826 -56.72470668 191.61682075 -53.4375 189.8125 C-47.45203579 186.38913293 -42.2633216 182.43027789 -37 178 C-35.453125 176.824375 -35.453125 176.824375 -33.875 175.625 C-16.28898422 159.56820299 -8.96937224 137.35812004 -2.99316406 115.09521484 C-2.12345106 111.86925464 -1.22672281 108.6516115 -0.328125 105.43359375 C0.23862668 103.34940564 0.80378605 101.26478374 1.3671875 99.1796875 C1.6327243 98.23560028 1.89826111 97.29151306 2.17184448 96.31881714 C4.71411248 86.66381022 5.55644154 77.11288307 1 68 C-1.01917822 65.55789478 -1.01917822 65.55789478 -3 64 C-3.04125 64.845625 -3.0825 65.69125 -3.125 66.5625 C-4.47276519 71.85729181 -7.44598593 75.06031449 -11.75390625 78.33203125 C-17.49090107 81.72152924 -23.50337454 81.85689003 -30 81 C-35.88621034 79.27389549 -39.56546838 76.1027327 -43 71 C-47.58033421 62.09789882 -46.08073199 54.07590204 -43.48046875 44.8046875 C-43.22123123 43.85361115 -42.96199371 42.90253479 -42.69490051 41.92263794 C-42.14740941 39.92283661 -41.59496884 37.92438438 -41.0378418 35.92724609 C-40.18905832 32.88059349 -39.35802161 29.82950627 -38.52929688 26.77734375 C-37.99323126 24.82783769 -37.45615593 22.87860894 -36.91796875 20.9296875 C-36.54746651 19.57011429 -36.54746651 19.57011429 -36.16947937 18.18307495 C-33.69580941 9.37517624 -30.6956237 3.25959893 -23 -2 C-15.65057717 -5.41429879 -6.65181786 -4.48274682 0 0 Z " fill="#98A9B4" transform="translate(474,39)"/>
<path d="M0 0 C4.44287878 4.00618557 7.37498544 8.34128456 8.39746094 14.32666016 C8.73555464 24.39159569 5.79459152 33.77943198 3.09277344 43.37451172 C2.24751308 46.38385407 1.43080787 49.39993652 0.6171875 52.41796875 C0.08500164 54.34941879 -0.44879639 56.2804255 -0.984375 58.2109375 C-1.22621521 59.10477142 -1.46805542 59.99860535 -1.71722412 60.91952515 C-3.6665936 67.75786353 -6.07219762 73.01715882 -12 77.3125 C-12.66 77.80363281 -13.32 78.29476562 -14 78.80078125 C-19.12329431 81.87275655 -25.38497643 81.66697852 -31.1171875 80.609375 C-37.71755441 78.6061508 -41.49243206 73.80259481 -45.1875 68.19921875 C-46.36434388 65.01381922 -46.18758758 62.12972909 -46.125 58.75 C-46.10695313 57.48671875 -46.08890625 56.2234375 -46.0703125 54.921875 C-46.04710937 53.95765625 -46.02390625 52.9934375 -46 52 C-47.5562216 52.78426187 -49.09434349 53.60444358 -50.625 54.4375 C-51.48351562 54.88996094 -52.34203125 55.34242187 -53.2265625 55.80859375 C-60.39761947 61.47473877 -63.16103427 69.30119562 -65.4375 77.875 C-65.86518677 79.42344604 -65.86518677 79.42344604 -66.30151367 81.00317383 C-66.90436972 83.20102132 -67.49933315 85.40104695 -68.08691406 87.60302734 C-69.00573638 91.02134116 -69.96498108 94.42641358 -70.9296875 97.83203125 C-80.16884221 131.04899223 -79.90506941 159.47384817 -63 190 C-62.34 190.99 -61.68 191.98 -61 193 C-61.20740701 195.53293512 -61.62274014 196.64089569 -63.47119141 198.40039062 C-64.09171387 198.81482422 -64.71223633 199.22925781 -65.3515625 199.65625 C-66.03863281 200.12160156 -66.72570312 200.58695313 -67.43359375 201.06640625 C-68.15675781 201.53949219 -68.87992187 202.01257813 -69.625 202.5 C-70.67494141 203.20962891 -70.67494141 203.20962891 -71.74609375 203.93359375 C-76.06136099 206.82378202 -80.46214559 209.47499965 -85 212 C-99.61950815 188.92703475 -107.93463764 165.29337659 -108.3125 137.75 C-108.33030518 136.96584717 -108.34811035 136.18169434 -108.36645508 135.3737793 C-108.3449239 118.74011297 -103.84193398 102.51298292 -99.43920898 86.6081543 C-98.5557937 83.41324637 -97.6899308 80.21394378 -96.82617188 77.01367188 C-96.26143261 74.94503488 -95.69571259 72.87666532 -95.12890625 70.80859375 C-94.87460342 69.86986923 -94.6203006 68.93114471 -94.35829163 67.963974 C-89.56708042 50.75600232 -81.57997784 36.96309305 -65.75 27.75 C-56.54104836 23.03604713 -47.39427774 20.15531829 -37 21 C-36.82984375 20.20335938 -36.6596875 19.40671875 -36.484375 18.5859375 C-34.38511842 9.40727308 -31.84952167 3.6516556 -24 -2 C-15.87794693 -5.79029143 -7.44716969 -4.78746623 0 0 Z " fill="#98A9B4" transform="translate(351,6)"/>
<path d="M0 0 C5.70335516 5.43864248 8.52977174 9.90229662 9.4375 17.8125 C9.27672728 24.66830795 6.76842608 31.23072505 4.71875 37.71533203 C3.54546826 41.44480573 2.42462748 45.18940445 1.3125 48.9375 C1.09964355 49.64890137 0.88678711 50.36030273 0.66748047 51.09326172 C-0.45763878 54.91687414 -1.38529796 58.69841625 -2.0625 62.625 C-3.50506698 70.29269839 -6.81172729 74.32358159 -13.09765625 78.8359375 C-18.24757733 81.98722391 -24.17672243 81.52468618 -30 81 C-35.88196067 79.3180668 -39.58268508 76.0771536 -43 71 C-47.58033421 62.09789882 -46.08073199 54.07590204 -43.48046875 44.8046875 C-43.22123123 43.85361115 -42.96199371 42.90253479 -42.69490051 41.92263794 C-42.14740941 39.92283661 -41.59496884 37.92438438 -41.0378418 35.92724609 C-40.18905832 32.88059349 -39.35802161 29.82950627 -38.52929688 26.77734375 C-37.99323126 24.82783769 -37.45615593 22.87860894 -36.91796875 20.9296875 C-36.54746651 19.57011429 -36.54746651 19.57011429 -36.16947937 18.18307495 C-33.69580941 9.37517624 -30.6956237 3.25959893 -23 -2 C-15.65057717 -5.41429879 -6.65181786 -4.48274682 0 0 Z " fill="#31373D" transform="translate(474,39)"/>
<path d="M0 0 C4.44287878 4.00618557 7.37498544 8.34128456 8.39746094 14.32666016 C8.73555464 24.39159569 5.79459152 33.77943198 3.09277344 43.37451172 C2.24751308 46.38385407 1.43080787 49.39993652 0.6171875 52.41796875 C0.08500164 54.34941879 -0.44879639 56.2804255 -0.984375 58.2109375 C-1.22621521 59.10477142 -1.46805542 59.99860535 -1.71722412 60.91952515 C-3.6665936 67.75786353 -6.07219762 73.01715882 -12 77.3125 C-12.66 77.80363281 -13.32 78.29476562 -14 78.80078125 C-19.12329431 81.87275655 -25.38497643 81.66697852 -31.1171875 80.609375 C-37.69795996 78.61209776 -41.55940077 73.81090245 -45.17578125 68.1640625 C-46.32018844 65.15931566 -46.30190973 62.52135278 -46.3125 59.3125 C-46.32925781 58.15363281 -46.34601563 56.99476562 -46.36328125 55.80078125 C-45.9958591 51.95667638 -45.10132321 48.92053024 -43.80883789 45.31420898 C-42.4974865 41.56223196 -41.54863544 37.72273581 -40.5625 33.875 C-40.34859619 33.05749268 -40.13469238 32.23998535 -39.91430664 31.39770508 C-38.89170896 27.48643057 -37.89039031 23.57147182 -36.9296875 19.64453125 C-36.76138428 18.97373535 -36.59308105 18.30293945 -36.41967773 17.61181641 C-35.96811309 15.80967336 -35.52853833 14.00453791 -35.08984375 12.19921875 C-32.9531162 5.92688949 -29.32994796 1.83756253 -24 -2 C-15.87794693 -5.79029143 -7.44716969 -4.78746623 0 0 Z " fill="#31373D" transform="translate(351,6)"/>
<path d="M0 0 C0.70487549 0.00684814 1.40975098 0.01369629 2.13598633 0.02075195 C9.55342937 0.24862645 14.45054053 2.06546846 20 6.875 C20.721875 7.720625 21.44375 8.56625 22.1875 9.4375 C22.88875 10.22125 23.59 11.005 24.3125 11.8125 C29.77927413 19.46598378 30.28004727 26.70012514 28.7890625 35.89453125 C26.87564212 42.98909643 22.14374604 48.88213111 15.9921875 52.85546875 C8.16680118 56.8547898 -0.67226165 58.14855368 -9.265625 55.75390625 C-11.27965847 54.79842974 -13.00689998 53.74290002 -14.8125 52.4375 C-15.42609375 52.01339844 -16.0396875 51.58929688 -16.671875 51.15234375 C-23.68182318 45.77505444 -26.94322308 38.78652256 -28.12109375 30.18359375 C-28.59267855 21.73793873 -25.45076376 14.52332795 -19.84375 8.2265625 C-13.83657375 2.7507903 -8.25389906 -0.12275281 0 0 Z " fill="#31383E" transform="translate(59.8125,202.5625)"/>
</svg>
