<?xml version="1.0" encoding="UTF-8"?>
<svg version="1.1" xmlns="http://www.w3.org/2000/svg" width="512" height="512">
<path d="M0 0 C168.96 0 337.92 0 512 0 C512 168.96 512 337.92 512 512 C343.04 512 174.08 512 0 512 C0 343.04 0 174.08 0 0 Z " fill="#5B903B" transform="translate(0,0)"/>
<path d="M0 0 C168.96 0 337.92 0 512 0 C512 23.43 512 46.86 512 71 C498.14 72.485 498.14 72.485 484 74 C460.44427381 77.73287464 433.98071152 82.37714247 415 98 C414.37996094 98.50789063 413.75992187 99.01578125 413.12109375 99.5390625 C407.01954055 105.08096541 402.66245354 112.67509293 399 120 C397.98333755 120.0154612 397.98333755 120.0154612 396.94613647 120.03123474 C390.44839792 120.13064594 383.95071915 120.23331658 377.45308495 120.33933926 C374.11539218 120.3936941 370.77769225 120.44657931 367.43994141 120.49731445 C337.11529162 120.67326005 337.11529162 120.67326005 306.9375 123.3125 C305.98198242 123.44293701 305.02646484 123.57337402 304.04199219 123.70776367 C282.66024149 126.81185915 265.27942563 136.71820288 252 154 C236.05176573 176.36761113 226.03840697 202.94240371 216.21142578 228.37109375 C210.17937948 243.85930404 203.56344735 259.19495412 196 274 C193.48619291 272.13378582 191.10334373 270.33348057 189 268 C188.95653201 266.00047242 188.960008 263.99960012 189 262 C187.25186816 259.11949618 185.18389579 256.5608778 183 254 C184.98 252.68 186.96 251.36 189 250 C188.75196998 246.11607541 188.34851978 244.37834278 185.671875 241.47265625 C184.70765625 240.67730469 183.7434375 239.88195312 182.75 239.0625 C178.38226441 235.30817851 175.06302026 231.85858386 172 227 C173.32 226.34 174.64 225.68 176 225 C175.835 224.236875 175.67 223.47375 175.5 222.6875 C174.97559171 219.86880541 174.71910113 217.78430752 175.6953125 215.05859375 C176.24392564 212.90747291 176.24392564 212.90747291 174.7421875 211.03515625 C174.12601563 210.38417969 173.50984375 209.73320312 172.875 209.0625 C172.22015625 208.35996094 171.5653125 207.65742188 170.890625 206.93359375 C169.47771657 205.48857377 168.0540544 204.0540544 166.625 202.625 C160.96552705 196.96552705 155.70864791 190.96782911 150.75 184.6875 C144.54007499 176.19829922 144.54007499 176.19829922 135.65625 171.70703125 C127.76637822 172.5772377 121.19144853 183.02376703 116.5 188.875 C115.39557573 190.26411815 114.2914067 191.65343927 113.1875 193.04296875 C108.23706948 199.25039112 102.95026995 205.1817701 97.20703125 210.66796875 C96.47871094 211.43753906 95.75039062 212.20710937 95 213 C95.07606836 215.13803054 95.07606836 215.13803054 96 217 C96 220 96 220 95.8125 222.5 C96.03912606 225.52168076 96.82536036 226.03654584 99 228 C90.37050571 237.8759768 90.37050571 237.8759768 86.5625 240.9375 C83.83597963 242.92062468 83.83597963 242.92062468 82 246 C81.91975342 248.59889783 81.91975342 248.59889783 83 251 C85.47636012 252.37466625 85.47636012 252.37466625 88 253 C86.8524078 255.58208246 85.75197398 257.26928539 83.8125 259.375 C83.214375 260.24125 82.61625 261.1075 82 262 C82.2475 262.92683594 82.495 263.85367187 82.75 264.80859375 C83 268 83 268 80.54296875 270.88671875 C79.44120307 271.83999134 78.32178717 272.7731648 77.1875 273.6875 C71.41839151 278.0960936 71.41839151 278.0960936 68.625 284.5 C68.765669 287.08264039 68.765669 287.08264039 70.625 288.6875 C73.33857438 290.18710689 76.03122718 291.12286258 79 292 C78.278125 292.70125 77.55625 293.4025 76.8125 294.125 C71.13500951 299.29113825 71.13500951 299.29113825 68.859375 306.20703125 C67.60072086 311.76227295 64.20536617 314.18157818 60 317.8125 C58.51895876 319.12940522 57.03969925 320.44831784 55.5625 321.76953125 C54.90378906 322.34292236 54.24507812 322.91631348 53.56640625 323.50708008 C51.8915119 324.93454472 51.8915119 324.93454472 51 327 C34.17 327 17.34 327 0 327 C0 219.09 0 111.18 0 0 Z " fill="#87C8F8" transform="translate(0,0)"/>
<path d="M0 0 C0 145.53 0 291.06 0 441 C-51.48 441 -102.96 441 -156 441 C-156 432.61442789 -152.23461924 428.21044437 -146.6875 422.1875 C-139.63111436 415.40095702 -131.09911511 410.18159606 -123.04931641 404.66259766 C-107.90093584 394.23579025 -91.95513951 382.42949324 -86.6875 363.9375 C-85.03989121 354.50119513 -86.0195058 348.00485982 -91.3671875 339.9375 C-104.80628263 322.82104054 -130.93335639 317.89972689 -151 313 C-155.02459747 312.01452261 -159.04427185 311.01109849 -163.0625 310 C-164.002146 309.77489746 -164.94179199 309.54979492 -165.90991211 309.31787109 C-172.12021616 307.75330448 -178.87489707 305.98158286 -184 302 C-184.77368164 299.3359375 -184.77368164 299.3359375 -185 297 C-170.80417449 282.80417449 -143.48094361 279.06259961 -124.75 273.8125 C-105.49999086 268.8706041 -105.49999086 268.8706041 -88 260 C-87.34 258.68 -86.68 257.36 -86 256 C-141.77 256 -197.54 256 -255 256 C-252.91712414 252.52854024 -251.03022932 249.73486964 -248.5625 246.625 C-232.76074873 224.89035677 -224.35358647 198.56611434 -215.49584961 173.4753418 C-194.60273452 114.29437244 -194.60273452 114.29437244 -177 92 C-176.43796875 91.26136719 -175.8759375 90.52273437 -175.296875 89.76171875 C-169.33597756 82.36630627 -161.01792489 76.94533536 -151.48071289 75.66064453 C-147.48880935 75.23893329 -143.49858597 74.8275597 -139.49804688 74.49609375 C-132.64198036 73.75368863 -128.52716748 72.30133289 -124 67 C-121.80265341 64.1804491 -121.80265341 64.1804491 -120.0625 61.125 C-119.38960937 59.99449219 -118.71671875 58.86398438 -118.0234375 57.69921875 C-116.24085915 54.5289586 -114.68913966 51.27750453 -113.15063477 47.98364258 C-104.37549309 29.3411933 -89.91608193 19.2367985 -71 12 C-48.39451154 3.91521354 -23.9409354 0 0 0 Z " fill="#292F33" transform="translate(512,71)"/>
<path d="M0 0 C5.58948463 2.00377751 8.92519831 5.67642992 12.5625 10.25 C13.33464844 11.21164063 14.10679687 12.17328125 14.90234375 13.1640625 C15.69769531 14.16179687 16.49304688 15.15953125 17.3125 16.1875 C18.91303606 18.16960386 20.5170835 20.14887857 22.125 22.125 C23.18654297 23.43791016 23.18654297 23.43791016 24.26953125 24.77734375 C26.27370017 27.22145576 26.27370017 27.22145576 28.57421875 29.37890625 C30.3125 31.1875 30.3125 31.1875 30.3125 33.1875 C30.90417969 33.44789063 31.49585938 33.70828125 32.10546875 33.9765625 C34.45277546 35.2644653 35.86274768 36.55974178 37.625 38.5625 C38.15738281 39.14773437 38.68976563 39.73296875 39.23828125 40.3359375 C40.3125 42.1875 40.3125 42.1875 39.98046875 44.2265625 C39.64982422 45.19722656 39.64982422 45.19722656 39.3125 46.1875 C39.3125 49.02717231 39.71517181 51.42485711 40.3125 54.1875 C38.9925 55.1775 37.6725 56.1675 36.3125 57.1875 C40.42048746 62.12992241 44.657236 66.54532683 49.61328125 70.64453125 C51.3125 72.1875 51.3125 72.1875 53.3125 75.1875 C53.25 77.625 53.25 77.625 52.3125 80.1875 C49.75 82.5 49.75 82.5 47.3125 84.1875 C47.745625 84.62320313 48.17875 85.05890625 48.625 85.5078125 C49.181875 86.10335937 49.73875 86.69890625 50.3125 87.3125 C50.869375 87.89257812 51.42625 88.47265625 52 89.0703125 C53.3125 91.1875 53.3125 91.1875 53.12890625 94.05859375 C53.35488043 97.90977079 54.75055203 99.10010666 57.52929688 101.63867188 C58.67226288 102.62595579 59.8154902 103.61293726 60.95898438 104.59960938 C64.02287477 107.39930802 65.20129616 108.77861202 66.328125 112.921875 C66.3125 116.1875 66.3125 116.1875 64.125 118.5 C61.88285349 119.8452879 59.65596135 121.03835086 57.3125 122.1875 C58.12654297 122.89712891 58.12654297 122.89712891 58.95703125 123.62109375 C59.67246094 124.28238281 60.38789063 124.94367188 61.125 125.625 C62.18654297 126.58212891 62.18654297 126.58212891 63.26953125 127.55859375 C65.25457245 130.11295843 65.77256991 131.45521358 66.6015625 134.48046875 C68.28942578 140.05553231 71.66736428 143.19322666 75.875 147.0625 C77.23233064 148.34960186 78.58787735 149.63858829 79.94140625 150.9296875 C80.8396814 151.76282471 80.8396814 151.76282471 81.75610352 152.61279297 C84.09420983 154.97840642 85.2404012 156.7729319 85.8125 160.0625 C85.23041287 163.70054458 84.04098799 164.91985376 81.11328125 167.0859375 C78.28737526 168.81458281 75.40822125 170.01112592 72.3125 171.1875 C72.95316406 171.8165625 73.59382812 172.445625 74.25390625 173.09375 C78.26332814 177.06134484 82.23354062 181.0011495 85.875 185.3125 C88.35031415 188.21982652 90.97531156 190.70343357 93.875 193.1875 C99.08023316 197.74319124 104.04213272 202.38917449 105.5625 209.375 C105.3125 213.1875 105.3125 213.1875 102.8125 216.0625 C90.07518341 225.75099081 66.4620258 219.99514563 51.97338867 218.03710938 C43.07851616 216.80761289 34.19267822 215.51873012 25.3125 214.1875 C25.45252441 215.35595459 25.59254883 216.52440918 25.73681641 217.72827148 C25.92095682 219.27587196 26.1050356 220.82347977 26.2890625 222.37109375 C26.4274353 223.5236969 26.4274353 223.5236969 26.56860352 224.69958496 C28.52401577 241.18786885 28.52401577 241.18786885 23.3125 248.1875 C16.35369396 254.82616726 8.67594484 255.53091849 -0.5625 255.5 C-1.51769531 255.51611328 -2.47289062 255.53222656 -3.45703125 255.54882812 C-12.12235422 255.55477142 -18.7491575 253.811289 -25.2109375 247.77734375 C-29.37914965 243.28934813 -30.09758402 239.1611728 -29.92578125 233.265625 C-29.43122202 226.8768926 -28.56920884 220.5326547 -27.6875 214.1875 C-28.40591064 214.29819824 -29.12432129 214.40889648 -29.86450195 214.52294922 C-67.46538139 220.28647823 -67.46538139 220.28647823 -84.8125 220.5 C-85.66569824 220.51772461 -86.51889648 220.53544922 -87.39794922 220.55371094 C-93.69610697 220.54628532 -100.31818355 219.85237497 -105.41455078 215.8215332 C-107.20937173 213.51759445 -107.09851242 211.25968501 -107.18359375 208.41796875 C-105.90860864 202.68555537 -101.29490053 198.54568915 -97.25 194.5625 C-96.32316406 193.64210938 -95.39632812 192.72171875 -94.44140625 191.7734375 C-91.6875 189.1875 -91.6875 189.1875 -89.0234375 187.09375 C-86.81000958 185.28747437 -85.36648496 183.64586089 -83.75 181.3125 C-81.02845092 177.53767608 -78.05500139 174.39464418 -74.6875 171.1875 C-75.37457031 170.87296875 -76.06164062 170.5584375 -76.76953125 170.234375 C-77.67058594 169.80640625 -78.57164063 169.3784375 -79.5 168.9375 C-80.83998047 168.31101562 -80.83998047 168.31101562 -82.20703125 167.671875 C-84.83557091 166.09889064 -86.135871 164.80939454 -87.6875 162.1875 C-87.88251297 157.89721472 -86.41453471 155.54346562 -83.75 152.375 C-80.81442553 149.17699372 -77.6277836 146.42182461 -74.3125 143.625 C-69.98739821 139.83810428 -69.21109877 137.94708647 -68.6875 132.1875 C-65.89572302 128.15084094 -62.76687208 124.90708139 -58.6875 122.1875 C-59.24179688 121.92195313 -59.79609375 121.65640625 -60.3671875 121.3828125 C-61.09164062 121.02960938 -61.81609375 120.67640625 -62.5625 120.3125 C-63.28179687 119.96445312 -64.00109375 119.61640625 -64.7421875 119.2578125 C-66.6875 118.1875 -66.6875 118.1875 -68.6875 116.1875 C-69.16726586 112.98906091 -68.97235994 111.60972894 -67.1484375 108.90625 C-66.46007812 108.1740625 -65.77171875 107.441875 -65.0625 106.6875 C-64.33933594 105.90761719 -63.61617187 105.12773437 -62.87109375 104.32421875 C-61.02689775 102.51961193 -59.2046178 101.01200447 -57.125 99.5 C-56.320625 98.736875 -55.51625 97.97375 -54.6875 97.1875 C-54.873125 96.28 -55.05875 95.3725 -55.25 94.4375 C-55.6875 91.1875 -55.6875 91.1875 -54.21875 88.8046875 C-52.43116084 86.54182662 -50.60587188 84.3402864 -48.6875 82.1875 C-49.47125 82.06375 -50.255 81.94 -51.0625 81.8125 C-53.6875 81.1875 -53.6875 81.1875 -55.6875 79.1875 C-55.44666418 74.73203733 -53.66766358 72.39690693 -50.6875 69.1875 C-48.67917564 67.39774071 -46.64077081 65.64765814 -44.59375 63.90234375 C-42.32957593 61.86551502 -40.47693996 59.64797994 -38.6875 57.1875 C-39.1825 56.795625 -39.6775 56.40375 -40.1875 56 C-42.16870728 53.60604121 -41.91535166 52.22552209 -41.6875 49.1875 C-41.50180466 46.31516554 -41.50180466 46.31516554 -42.4375 44.3125 C-42.6875 42.1875 -42.6875 42.1875 -41.1875 39.8125 C-39.32104918 37.85272664 -37.58022742 36.24995721 -35.5 34.5625 C-30.5105457 30.39932476 -26.72804557 25.24299979 -22.6875 20.1875 C-6.56477694 0.33380222 -6.56477694 0.33380222 0 0 Z " fill="#3E721D" transform="translate(136.6875,170.8125)"/>
<path d="M0 0 C9.24 0 18.48 0 28 0 C27 4 27 4 24.48046875 6.0390625 C20.52081336 8.26997946 16.58679747 9.86173667 12.3125 11.375 C11.48524414 11.67317627 10.65798828 11.97135254 9.80566406 12.27856445 C-1.32005932 16.24407512 -12.54776269 19.91022068 -24 22.8125 C-31.38478494 24.73545275 -38.62455647 27.06099811 -45.875 29.4375 C-47.60556641 29.99497925 -47.60556641 29.99497925 -49.37109375 30.5637207 C-60.55682766 34.21824991 -60.55682766 34.21824991 -70 41 C-70.16687448 43.58354218 -70.16687448 43.58354218 -70 46 C-59.29683457 50.42612104 -48.19800086 53.23592268 -36.9375 55.8125 C13.01968952 67.4174903 13.01968952 67.4174903 25.53125 86.3125 C29.78079546 94.56875974 29.86391895 101.65469296 27.4375 110.4375 C21.0156926 129.63602838 3.48846768 141.03416847 -12.38671875 152.04296875 C-29.15206186 163.14961 -29.15206186 163.14961 -41 179 C-41.33 180.98 -41.66 182.96 -42 185 C-121.86 185 -201.72 185 -284 185 C-282.65279806 172.87518256 -278.18285698 165.84746844 -269 158 C-265.78192214 155.47110341 -262.4390651 153.216918 -259 151 C-257.50339844 150.00226563 -257.50339844 150.00226563 -255.9765625 148.984375 C-224.38355274 128.55886625 -185.00270933 117.83631987 -148.99487305 108.20019531 C-142.23566947 106.37828133 -135.56904189 104.33677223 -128.91015625 102.17944336 C-123.560819 100.45703344 -118.18031756 98.94398005 -112.75 97.5 C-103.63537747 95.05093795 -93.8988387 92.26589247 -86 87 C-85.87786106 84.65851769 -85.87786106 84.65851769 -87 82 C-92.88815978 76.96476429 -100.65711261 74.66110024 -107.8125 72.0625 C-133.16430205 62.84767108 -133.16430205 62.84767108 -140.9375 51.0625 C-142.2759242 47.20468908 -143.00651752 43.97388028 -142 40 C-137.94931094 32.76758157 -131.51894148 29.73056296 -124 27 C-123.1028125 26.66484375 -122.205625 26.3296875 -121.28125 25.984375 C-102.0639268 19.47528166 -81.50027684 17.28468761 -61.5 14.5 C-41.75056838 11.78772835 -41.75056838 11.78772835 -22.125 8.3125 C-21.21427734 8.13460938 -20.30355469 7.95671875 -19.36523438 7.7734375 C-13.08519573 6.4528461 -6.84093431 4.68943225 -1 2 C-0.67 1.34 -0.34 0.68 0 0 Z " fill="#55ABED" transform="translate(398,327)"/>
<path d="M0 0 C28.38 0 56.76 0 86 0 C86 61.05 86 122.1 86 185 C34.52 185 -16.96 185 -70 185 C-70 176.61442789 -66.23461924 172.21044437 -60.6875 166.1875 C-53.63111436 159.40095702 -45.09911511 154.18159606 -37.04931641 148.66259766 C-21.90093584 138.23579025 -5.95513951 126.42949324 -0.6875 107.9375 C0.96010879 98.50119513 -0.0195058 92.00485982 -5.3671875 83.9375 C-18.80628263 66.82104054 -44.93335639 61.89972689 -65 57 C-69.02459747 56.01452261 -73.04427185 55.01109849 -77.0625 54 C-78.002146 53.77489746 -78.94179199 53.54979492 -79.90991211 53.31787109 C-86.12021616 51.75330448 -92.87489707 49.98158286 -98 46 C-98.77368164 43.3359375 -98.77368164 43.3359375 -99 41 C-84.80417449 26.80417449 -57.48094361 23.06259961 -38.75 17.8125 C-19.49999086 12.8706041 -19.49999086 12.8706041 -2 4 C-1.34 2.68 -0.68 1.36 0 0 Z " fill="#5B913B" transform="translate(426,327)"/>
<path d="M0 0 C2.69400894 0.00561455 5.3880195 0.00966026 8.08203125 0.01367188 C14.59637471 0.02454335 21.11068286 0.04115697 27.625 0.0625 C26.7047035 1.96100186 25.77757042 3.85619046 24.84765625 5.75 C24.33211182 6.80574219 23.81656738 7.86148438 23.28540039 8.94921875 C19.97587892 15.15463233 15.66890553 21.32670012 9.625 25.0625 C5.96749148 25.86015819 2.28697743 26.1652289 -1.4375 26.5 C-15.84638805 28.10535945 -26.3603992 31.35231689 -35.734375 42.9921875 C-55.78689813 69.42219936 -65.87894396 101.79403758 -76.70507812 132.73242188 C-94.91498861 184.47371116 -94.91498861 184.47371116 -111.375 203.0625 C-111.91797729 204.09080933 -111.91797729 204.09080933 -112.47192383 205.13989258 C-115.37935191 208.07715956 -118.60316874 207.71181276 -122.515625 207.734375 C-123.71623566 207.7543454 -123.71623566 207.7543454 -124.94110107 207.77471924 C-126.6356081 207.79496607 -128.33027449 207.80435345 -130.02490234 207.80371094 C-132.60395708 207.81242887 -135.17607182 207.88493013 -137.75390625 207.9609375 C-149.74160306 208.12647161 -149.74160306 208.12647161 -153.9206543 205.40429688 C-155.66808621 203.38223115 -157.00797542 201.3529559 -158.375 199.0625 C-160.12965749 197.37881192 -161.89847652 195.70962582 -163.6875 194.0625 C-168.83661084 189.01374664 -168.83661084 189.01374664 -169.5 184.9375 C-170.75260197 179.39026272 -174.19502113 176.71755129 -178.375 173.0625 C-176.75871879 169.82993757 -173.60506285 169.38913296 -170.375 168.0625 C-170.045 167.7325 -169.715 167.4025 -169.375 167.0625 C-169.5463999 162.60610268 -169.79088973 160.64661027 -173 157.4375 C-173.78375 156.65375 -174.5675 155.87 -175.375 155.0625 C-175.1205071 150.37134755 -172.68855004 146.37530685 -170.625 142.25 C-166.38929281 133.54611182 -162.67335403 124.66267696 -159.0625 115.6875 C-158.78842316 115.00738861 -158.51434631 114.32727722 -158.23196411 113.6265564 C-156.8320867 110.15200226 -155.43497089 106.67634561 -154.0390625 103.20019531 C-140.1046201 68.52493399 -140.1046201 68.52493399 -132.375 54.0625 C-131.61316406 52.57169922 -131.61316406 52.57169922 -130.8359375 51.05078125 C-120.34531667 30.93908303 -104.75588308 14.30002393 -83.375 6.0625 C-78.41032645 4.62871452 -73.48996927 3.76507642 -68.375 3.0625 C-67.14652344 2.87171875 -65.91804688 2.6809375 -64.65234375 2.484375 C-43.27165983 -0.5606868 -21.53921482 -0.07082631 0 0 Z " fill="#65757F" transform="translate(371.375,119.9375)"/>
<path d="M0 0 C0.70680908 0.00161133 1.41361816 0.00322266 2.1418457 0.00488281 C10.17820909 0.19196693 17.58953204 2.49306071 23.3125 8.375 C29.3125 16.28866906 29.3125 16.28866906 29.3125 20.375 C30.075625 20.045 30.83875 19.715 31.625 19.375 C42.23421151 16.49792569 52.06386028 18.83128659 61.5 24.0625 C70.66170273 29.92139453 75.78343242 38.04679655 78.92578125 48.39453125 C80.83685398 58.18154009 78.87374253 68.52869871 73.69921875 77.0234375 C67.38541025 85.45118188 58.82095668 92.21477777 48.3125 94.375 C46.62821477 94.47017935 44.94067589 94.51403052 43.25372314 94.52217102 C42.23325897 94.52932632 41.2127948 94.53648163 40.16140747 94.54385376 C39.04756683 94.54654266 37.9337262 94.54923157 36.78613281 94.55200195 C35.60846344 94.55857315 34.43079407 94.56514435 33.21743774 94.57191467 C29.31684006 94.59163917 25.41625586 94.60331229 21.515625 94.61328125 C20.16984792 94.61733081 18.82407104 94.62144779 17.47829437 94.62563133 C11.15435771 94.64467165 4.83043263 94.65890495 -1.49352717 94.6672433 C-8.78004949 94.67701095 -16.06626764 94.70332264 -23.35268283 94.74374419 C-28.99360871 94.77395762 -34.63444766 94.78871711 -40.27545285 94.79202431 C-43.64044542 94.7943689 -47.00511263 94.80325127 -50.37001801 94.82848549 C-54.12810984 94.85283323 -57.88540811 94.85191929 -61.64355469 94.8449707 C-62.7492984 94.85778076 -63.85504211 94.87059082 -64.99429321 94.88378906 C-72.66923721 94.83213532 -77.99935665 93.60694443 -83.9296875 88.41015625 C-84.46851563 87.75917969 -85.00734375 87.10820313 -85.5625 86.4375 C-86.11679688 85.78910156 -86.67109375 85.14070313 -87.2421875 84.47265625 C-91.69637085 78.00807123 -91.51295373 70.96745461 -90.6875 63.375 C-88.25387462 56.47610661 -82.36796565 51.21523283 -75.9375 48 C-71.18494647 47.0860474 -66.51086862 47.22051488 -61.6875 47.375 C-62.0175 46.385 -62.3475 45.395 -62.6875 44.375 C-63.45119119 36.79683354 -61.8142512 31.5651268 -57.5625 25.1875 C-53.52109608 20.66064215 -47.70512841 18.23533703 -41.6875 17.875 C-36.9257933 18.10540516 -32.85891044 20.21204644 -28.6875 22.375 C-28.48125 21.55 -28.275 20.725 -28.0625 19.875 C-24.73629046 11.40828482 -18.50088168 5.30173699 -10.421875 1.234375 C-6.93498996 0.13849684 -3.62160229 -0.0085607 0 0 Z " fill="#F4F7F9" transform="translate(119.6875,33.625)"/>
<path d="M0 0 C-0.47179687 0.87785156 -0.47179687 0.87785156 -0.953125 1.7734375 C-6.8891161 13.68117867 -8.77439459 26.70048222 -10.6875 39.75 C-10.80689941 40.56388184 -10.92629883 41.37776367 -11.04931641 42.21630859 C-13.31452303 58.70216112 -13.20919771 75.22884665 -13.31640625 91.8359375 C-13.33651327 94.52878516 -13.35796308 97.2216217 -13.37937927 99.91445923 C-13.42894921 106.2428035 -13.47401777 112.5711712 -13.51740164 118.89956057 C-13.56708264 126.11380196 -13.62188453 133.32800174 -13.67708123 140.54220271 C-13.79035197 155.3614299 -13.89663118 170.18070013 -14 185 C-23.57 185 -33.14 185 -43 185 C-43.04557158 173.28880591 -43.0820978 161.57767276 -43.10362434 149.8664093 C-43.11396706 144.42571665 -43.1279474 138.98508891 -43.15087891 133.54443359 C-43.34564511 86.01854578 -43.34564511 86.01854578 -41 68 C-40.91302856 67.30843811 -40.82605713 66.61687622 -40.7364502 65.90435791 C-40.21129034 61.84964982 -39.55720668 57.83219207 -38.8125 53.8125 C-38.49212769 52.06924438 -38.49212769 52.06924438 -38.1652832 50.29077148 C-35.07450742 34.33071092 -30.70450744 19.22239138 -21 6 C-20.3503125 4.95199219 -20.3503125 4.95199219 -19.6875 3.8828125 C-15.19454453 -2.21075836 -6.76579951 -0.46482592 0 0 Z " fill="#226597" transform="translate(441,142)"/>
<path d="M0 0 C1.01775513 -0.00315216 2.03551025 -0.00630432 3.08410645 -0.009552 C4.19137085 -0.00752777 5.29863525 -0.00550354 6.43945312 -0.00341797 C7.56766479 -0.00437469 8.69587646 -0.00533142 9.85827637 -0.00631714 C12.24910538 -0.00699915 14.63993624 -0.00514344 17.03076172 -0.00097656 C20.70479464 0.00437137 24.37870529 -0.0009209 28.05273438 -0.00732422 C30.3691409 -0.00666344 32.68554734 -0.00538229 35.00195312 -0.00341797 C36.66284973 -0.00645432 36.66284973 -0.00645432 38.3572998 -0.009552 C39.37505493 -0.00639984 40.39281006 -0.00324768 41.44140625 0 C42.79256531 0.00119339 42.79256531 0.00119339 44.17102051 0.00241089 C46.22070312 0.12939453 46.22070312 0.12939453 47.22070312 1.12939453 C50.95248916 25.53582 50.95248916 25.53582 46.55273438 33.34033203 C42.92926518 38.20704432 38.0047572 40.64412273 32.22070312 42.12939453 C28.59218075 42.43758046 24.98562987 42.45407635 21.34570312 42.44189453 C19.91291016 42.46606445 19.91291016 42.46606445 18.45117188 42.49072266 C9.7858489 42.49666595 3.15904562 40.75318353 -3.30273438 34.71923828 C-7.47095557 30.23123293 -8.19427454 26.10029034 -8.01367188 20.20361328 C-6.47380691 0.00571789 -6.47380691 0.00571789 0 0 Z " fill="#652213" transform="translate(114.779296875,383.87060546875)"/>
</svg>
