<svg width="88" height="45" viewBox="0 0 88 45" fill="none" xmlns="http://www.w3.org/2000/svg">
<path d="M-0.000203013 35.1841V19.8721V10.0801H5.0398L4.8958 17.7601H5.7598C6.2078 15.8721 6.7998 14.3201 7.5358 13.1041C8.3038 11.8881 9.2798 10.9761 10.4638 10.3681C11.6478 9.76008 13.0238 9.45608 14.5918 9.45608C17.4398 9.45608 19.5998 10.4641 21.0718 12.4801C22.5758 14.4961 23.3278 17.6161 23.3278 21.8401V35.1841H17.2318V22.4641C17.2318 19.7441 16.8158 17.7601 15.9838 16.5121C15.1838 15.2321 13.9838 14.5921 12.3838 14.5921C11.0398 14.5921 9.9038 15.0241 8.9758 15.8881C8.0478 16.7201 7.3278 17.8401 6.8158 19.2481C6.3358 20.6241 6.0798 22.1441 6.0478 23.8081V35.1841H-0.000203013ZM24.6785 44.5921C24.3905 44.5921 24.1025 44.5601 23.8145 44.4961C23.5265 44.4641 23.2065 44.4161 22.8545 44.3521L22.3745 39.0721C24.0385 39.2001 25.2385 39.0241 25.9745 38.5441C26.7105 38.0961 27.0785 37.0561 27.0785 35.4241V10.0801H33.1745V35.4241C33.1745 36.9921 32.9825 38.3521 32.5985 39.5041C32.2465 40.6561 31.7185 41.6001 31.0145 42.3361C30.3105 43.1041 29.4145 43.6641 28.3265 44.0161C27.2705 44.4001 26.0545 44.5921 24.6785 44.5921ZM30.1025 6.14408C28.8865 6.14408 27.9425 5.88808 27.2705 5.37608C26.6305 4.83208 26.3105 4.06408 26.3105 3.07208C26.3105 2.08008 26.6305 1.32808 27.2705 0.816081C27.9425 0.27208 28.8865 8.01086e-05 30.1025 8.01086e-05C31.3825 8.01086e-05 32.3425 0.256081 32.9825 0.768082C33.6225 1.28008 33.9425 2.04808 33.9425 3.07208C33.9425 4.06408 33.6065 4.83208 32.9345 5.37608C32.2945 5.88808 31.3505 6.14408 30.1025 6.14408ZM37.0835 35.1841V10.0801H43.1315V35.1841H37.0835ZM40.1075 6.14408C38.8915 6.14408 37.9475 5.88808 37.2755 5.37608C36.6355 4.83208 36.3155 4.06408 36.3155 3.07208C36.3155 2.08008 36.6355 1.32808 37.2755 0.816081C37.9475 0.27208 38.8915 8.01086e-05 40.1075 8.01086e-05C41.3875 8.01086e-05 42.3475 0.256081 42.9875 0.768082C43.6275 1.28008 43.9475 2.04808 43.9475 3.07208C43.9475 4.06408 43.6115 4.83208 42.9395 5.37608C42.2995 5.88808 41.3555 6.14408 40.1075 6.14408ZM47.0473 35.1841V1.10408H52.9993V35.1841H47.0473ZM62.7253 35.8081C61.3493 35.8081 60.1173 35.5521 59.0293 35.0401C57.9413 34.4961 57.0773 33.6961 56.4373 32.6401C55.8293 31.5841 55.5253 30.2721 55.5253 28.7041C55.5253 27.3921 55.7653 26.2721 56.2453 25.3441C56.7573 24.4161 57.5093 23.6641 58.5013 23.0881C59.4933 22.4801 60.7253 21.9841 62.1973 21.6001C63.6693 21.1841 65.3973 20.8321 67.3813 20.5441C68.4693 20.3841 69.3493 20.2241 70.0213 20.0641C70.7253 19.9041 71.2373 19.6641 71.5573 19.3441C71.8773 18.9921 72.0373 18.4801 72.0373 17.8081C72.0373 16.8161 71.6853 15.9681 70.9813 15.2641C70.3093 14.5281 69.2053 14.1601 67.6693 14.1601C66.7413 14.1601 65.8453 14.3201 64.9813 14.6401C64.1493 14.9601 63.4293 15.4721 62.8213 16.1761C62.2133 16.8481 61.7973 17.7441 61.5733 18.8641L56.1493 17.1841C56.5013 15.9041 57.0133 14.8001 57.6853 13.8721C58.3573 12.9121 59.1893 12.0961 60.1813 11.4241C61.1733 10.7521 62.3093 10.2561 63.5893 9.93608C64.8693 9.61608 66.2773 9.45608 67.8133 9.45608C70.1493 9.45608 72.0693 9.84008 73.5733 10.6081C75.0773 11.3441 76.1973 12.5121 76.9333 14.1121C77.6693 15.6801 78.0373 17.7121 78.0373 20.2081V24.9121C78.0373 26.0001 78.0533 27.1361 78.0853 28.3201C78.1493 29.4721 78.2133 30.6401 78.2773 31.8241C78.3733 32.9761 78.4853 34.0961 78.6133 35.1841H73.1893C73.0613 34.2881 72.9493 33.3281 72.8533 32.3041C72.7573 31.2801 72.6773 30.2401 72.6133 29.1841H71.8453C71.3973 30.4001 70.7573 31.5201 69.9253 32.5441C69.0933 33.5361 68.0693 34.3361 66.8533 34.9441C65.6693 35.5201 64.2933 35.8081 62.7253 35.8081ZM65.1253 31.3441C65.7653 31.3441 66.4053 31.2321 67.0453 31.0081C67.7173 30.7841 68.3733 30.4481 69.0133 30.0001C69.6533 29.5521 70.2453 29.0081 70.7893 28.3681C71.3333 27.6961 71.7973 26.9121 72.1813 26.0161L72.0853 21.7441L73.2373 21.9361C72.6933 22.3841 72.0213 22.7361 71.2213 22.9921C70.4213 23.2481 69.5733 23.4401 68.6773 23.5681C67.8133 23.6961 66.9333 23.8561 66.0373 24.0481C65.1733 24.2081 64.3893 24.4321 63.6853 24.7201C62.9813 24.9761 62.4213 25.3601 62.0053 25.8721C61.5893 26.3521 61.3813 27.0241 61.3813 27.8881C61.3813 28.9761 61.7333 29.8241 62.4373 30.4321C63.1413 31.0401 64.0373 31.3441 65.1253 31.3441Z" fill="#D44B1A"/>
<path d="M83.561 35.7601C82.249 35.7601 81.257 35.4721 80.585 34.8961C79.913 34.3201 79.577 33.4241 79.577 32.2081C79.577 30.9601 79.913 30.0481 80.585 29.4721C81.257 28.8961 82.249 28.6081 83.561 28.6081C84.937 28.6081 85.961 28.8961 86.633 29.4721C87.337 30.0481 87.689 30.9601 87.689 32.2081C87.689 34.5761 86.313 35.7601 83.561 35.7601Z" fill="#1A1208"/>
</svg>
