<svg width="253" height="253" viewBox="0 0 253 253" fill="none" xmlns="http://www.w3.org/2000/svg">
<path d="M120.076 6.67367C124.051 4.37863 128.949 4.37863 132.924 6.67367L227.061 61.0234C231.036 63.3187 233.484 67.5599 233.484 72.15V180.85C233.484 185.44 231.036 189.681 227.061 191.977L132.924 246.326C128.949 248.621 124.051 248.621 120.076 246.326L25.9392 191.977C21.9642 189.681 19.5154 185.44 19.5154 180.85V72.15C19.5154 67.5599 21.9642 63.3187 25.9393 61.0234L120.076 6.67367Z" fill="#D3250A"/>
<path d="M58.316 160V89.584H74.948L92.984 124.252C94.28 126.628 95.468 129.184 96.548 131.92C97.7 134.584 98.816 137.32 99.896 140.128H100.328C99.968 136.312 99.536 132.136 99.032 127.6C98.528 123.064 98.276 118.708 98.276 114.532V89.584H113.504V160H96.872L78.836 125.332C77.612 122.956 76.388 120.4 75.164 117.664C74.012 114.928 72.896 112.192 71.816 109.456H71.384C71.816 113.344 72.284 117.556 72.788 122.092C73.292 126.556 73.544 130.876 73.544 135.052V160H58.316ZM145.152 161.296C140.256 161.296 136.044 160.252 132.516 158.164C129.06 156.076 126.18 152.8 123.876 148.336L134.028 141.424C135.036 143.368 136.404 144.88 138.132 145.96C139.86 147.04 141.696 147.58 143.64 147.58C146.736 147.58 149.04 146.644 150.552 144.772C152.136 142.9 152.928 139.552 152.928 134.728V89.584H168.804V136.024C168.804 140.632 167.976 144.88 166.32 148.768C164.664 152.584 162.072 155.644 158.544 157.948C155.088 160.18 150.624 161.296 145.152 161.296Z" fill="white"/>
<path d="M199 150.5C199 145.253 194.747 141 189.5 141C184.253 141 180 145.253 180 150.5C180 155.747 184.253 160 189.5 160C194.747 160 199 155.747 199 150.5Z" fill="#1F170D"/>
</svg>
