<svg width="461" height="118" viewBox="0 0 461 118" fill="none" xmlns="http://www.w3.org/2000/svg">
<g clip-path="url(#clip0_62_4)">
<path d="M0 115.009V0H31.1411L56.6201 51.3119C58.6254 55.2046 60.5127 59.3921 62.2821 63.8745C64.0515 68.239 65.8209 72.6624 67.5902 77.1448H68.298C67.5902 70.893 66.7645 63.8155 65.8209 55.9123C64.8772 47.8911 64.4053 40.3418 64.4053 33.2643V0H93.423V115.009H62.2821L36.8031 63.6976C34.9157 59.8049 33.0284 55.6174 31.1411 51.135C29.3717 46.6526 27.6023 42.2291 25.8329 37.8647H25.1252C25.8329 44.3524 26.6587 51.5478 27.6023 59.4511C28.546 67.2363 29.0178 74.6677 29.0178 81.7452V115.009H0ZM134.45 117.133C125.957 117.133 118.703 115.363 112.687 111.825C106.789 108.286 101.894 102.624 98.0014 94.8386L117.111 81.7452C118.526 84.5762 120.531 86.8174 123.126 88.4688C125.722 90.1202 128.435 90.946 131.266 90.946C135.866 90.946 139.287 89.5894 141.528 86.8764C143.887 84.1633 145.067 79.0322 145.067 71.4828V0H175.5V73.9599C175.5 81.8632 174.025 89.1176 171.077 95.7233C168.128 102.211 163.586 107.401 157.452 111.294C151.436 115.186 143.769 117.133 134.45 117.133ZM189.572 115.009V0H220.005V115.009H189.572ZM234.94 115.009V0H278.467C286.724 0 294.332 1.1206 301.292 3.36181C308.251 5.48506 313.854 9.25973 318.101 14.6858C322.347 20.1119 324.47 27.6023 324.47 37.1569C324.47 46.3577 322.347 53.848 318.101 59.628C313.854 65.408 308.251 69.6545 301.292 72.3675C294.332 75.0805 286.724 76.4371 278.467 76.4371H265.373V115.009H234.94ZM265.373 52.3736H276.343C282.359 52.3736 286.901 51.076 289.968 48.4809C293.152 45.8858 294.745 42.1112 294.745 37.1569C294.745 32.2027 293.152 28.7819 289.968 26.8945C286.901 25.0072 282.359 24.0635 276.343 24.0635H265.373V52.3736ZM296.868 115.009L272.982 68.4749L293.506 48.304L330.84 115.009H296.868ZM319.537 115.009L354.571 0H391.374L426.407 115.009H394.205L381.111 59.0972C379.696 53.5531 378.28 47.5373 376.865 41.0495C375.449 34.5618 374.034 28.428 372.618 22.648H371.91C370.731 28.428 369.433 34.5618 368.018 41.0495C366.602 47.5373 365.187 53.5531 363.771 59.0972L350.678 115.009H319.537ZM344.662 90.5921V67.0594H400.928V90.5921H344.662Z" fill="#D3250A"/>
<path d="M442.329 117.133C437.257 117.133 433.01 115.363 429.589 111.825C426.286 108.168 424.635 103.803 424.635 98.7312C424.635 93.541 426.286 89.1766 429.589 85.6378C433.01 82.0991 437.257 80.3297 442.329 80.3297C447.519 80.3297 451.765 82.0991 455.068 85.6378C458.371 89.1766 460.023 93.541 460.023 98.7312C460.023 103.803 458.371 108.168 455.068 111.825C451.765 115.363 447.519 117.133 442.329 117.133Z" fill="#1F170D"/>
</g>
<defs>
<clipPath id="clip0_62_4">
<rect width="461" height="118" fill="white"/>
</clipPath>
</defs>
</svg>
